<svg xmlns="http://www.w3.org/2000/svg" width="45.82" height="35.67" viewBox="0 0 45.82 35.67">
  <path id="Path_1814" data-name="Path 1814" d="M8.483-107.01C-2.972-105.27-12.4-96.425-12.4-84.68c0,8.265,5.365,13.34,11.165,13.34,4.5,0,7.685-3.045,7.685-7.395,0-2.9-1.45-6.235-6.235-7.395-3.045-.87-6.96-1.885-6.67-5.945.145-6.67,8.845-12.615,15.08-14.065Zm24.795,0c-11.455,1.74-21.025,10.585-21.025,22.33,0,8.265,5.51,13.34,11.31,13.34,4.5,0,7.685-3.045,7.685-7.395,0-2.9-1.45-6.235-6.235-7.395-3.045-.87-6.96-1.885-6.67-5.945.145-6.67,8.845-12.615,15.08-14.065Z" transform="translate(12.397 107.01)" fill="#fff" style="mix-blend-mode: exclusion;isolation: isolate"/>
</svg>
