<svg xmlns="http://www.w3.org/2000/svg" viewBox="0 0 180.92 67.3"><defs><style>.cls-1{fill:none;}.cls-2{fill:#fff;}</style></defs><g id="Layer_2" data-name="Layer 2"><g id="Layer_1-2" data-name="Layer 1"><path class="cls-1" d="M54.59,43.72V64.24h5.89c6.77,0,9.65-3.34,9.65-10.26s-2.88-10.26-9.65-10.26Z"/><polygon class="cls-2" points="177.64 41.25 177.64 62.19 177.41 62.19 174.71 58.2 163.27 41.25 160.35 41.25 160.35 66.71 163.04 66.71 163.04 45.85 163.23 45.85 165.89 49.76 177.41 66.71 180.37 66.71 180.37 41.25 177.64 41.25"/><polygon class="cls-2" points="95.33 43.72 95.33 41.25 78.19 41.25 78.19 66.71 95.33 66.71 95.33 64.24 80.89 64.24 80.89 55.16 94.76 55.16 94.76 52.65 80.89 52.65 80.89 43.72 95.33 43.72"/><path class="cls-2" d="M142.94,56.49h8.82v1.29c0,4.56-2.59,6.69-7.83,6.69-6.19,0-8.93-3.42-8.93-10.49s2.7-10.49,8.74-10.49c5.36,0,7.75,2.32,7.75,6.62v.34h2.89v-.34c0-5.67-4.29-9.24-10.41-9.24-7.37,0-11.86,5.17-11.86,13.11s4.22,13.11,11.33,13.11c4,0,7.14-1.71,8.36-4.6H152v4.22h2.47V54.1H142.94Z"/><path class="cls-2" d="M118.51,49.53V49c0-4.14-2.89-8.17-9.5-8.17-6,0-9.08,3.19-9.08,6.88,0,4.1,2.73,5.93,6.72,6.76l4.41,1c3.84.84,5.13,1.9,5.13,4.75s-2,4.33-6.19,4.33c-5.66,0-7.53-2.2-7.53-5.74v-.41h-2.7V59c0,4.37,3.08,8.09,10.15,8.09,6,0,9-3.11,9-7s-2.51-6-6.73-6.92l-4.41-1c-3.72-.88-5.13-1.71-5.13-4.6s2.09-4.18,6.31-4.18c5,0,6.84,2.24,6.84,5.74v.41Z"/><rect class="cls-2" x="124.09" y="41.25" width="2.7" height="25.46"/><path class="cls-2" d="M51.89,41.25V66.71h8.59C68.16,66.71,73,61.77,73,54s-4.82-12.73-12.5-12.73ZM70.13,54c0,6.92-2.88,10.26-9.65,10.26H54.59V43.72h5.89C67.25,43.72,70.13,47.07,70.13,54Z"/><rect class="cls-1" x="51.72" y="40.7" width="129.19" height="26.6"/><path class="cls-1" d="M35,3c-6,0-8.78,3.42-8.78,10.49S29.05,24,35,24s8.74-3.42,8.74-10.48S41,3,35,3Z"/><path class="cls-1" d="M95.66,24c6,0,8.74-3.42,8.74-10.48S101.63,3,95.66,3,86.89,6.4,86.89,13.47,89.7,24,95.66,24Z"/><path class="cls-1" d="M129,8.34c0-3.5-1.75-5.13-5.66-5.13h-8.1V13.5h8.1C127.24,13.5,129,12,129,8.34Z"/><path class="cls-2" d="M35,.36c-7,0-11.63,5.16-11.63,13.11S28,26.58,35,26.58s11.59-5.17,11.59-13.11S42,.36,35,.36ZM35,24c-6,0-8.78-3.42-8.78-10.48S29.05,3,35,3s8.74,3.42,8.74,10.49S41,24,35,24Z"/><path class="cls-2" d="M124.16,15.44v-.23c4.56-.11,7.57-2.73,7.57-7.06,0-4.72-3.58-7.41-8.82-7.41H112.54V26.2h2.69V15.82h3.69c3.31,0,4.64,1,5.89,3.23l4.1,7.15h3.16l-4.37-7.64A6,6,0,0,0,124.16,15.44Zm-.83-1.94h-8.1V3.21h8.1c3.91,0,5.66,1.63,5.66,5.13S127.24,13.5,123.33,13.5Z"/><path class="cls-2" d="M95.66,26.58c7,0,11.59-5.17,11.59-13.11S102.62.36,95.66.36,84,5.52,84,13.47,88.67,26.58,95.66,26.58Zm0-23.6c6,0,8.74,3.42,8.74,10.49S101.63,24,95.66,24s-8.77-3.42-8.77-10.48S89.7,3,95.66,3Z"/><polygon class="cls-2" points="54.59 8.56 54.48 4.88 54.7 4.88 56.26 8.56 63.63 24.68 66.9 24.68 74.27 8.56 75.83 4.88 76.06 4.88 75.94 8.56 75.94 26.2 78.68 26.2 78.68 0.74 74.84 0.74 67.7 16.54 65.42 22.05 65.19 22.05 62.91 16.54 55.69 0.74 51.89 0.74 51.89 26.2 54.59 26.2 54.59 8.56"/><path class="cls-2" d="M15.33,17.87c0,4-1.25,6.08-6,6.08s-6-2.05-6-6.08V16.05H.4v1.56c0,5.05,2.54,9,9,9,6.27,0,8.81-3.92,8.81-9V.74H15.33Z"/><rect class="cls-1" width="132.22" height="26.73"/></g></g></svg>