<svg xmlns="http://www.w3.org/2000/svg" viewBox="0 0 110.18 26.04"><defs><style>.cls-1{fill:none;}.cls-2{isolation:isolate;}.cls-3{fill:#fff;}</style></defs><g id="Layer_2" data-name="Layer 2"><g id="Layer_1-2" data-name="Layer 1"><rect class="cls-1" width="110.18" height="25.82"/><g class="cls-2"><path class="cls-3" d="M.18,25.66V.2H4L11.2,16l2.28,5.51h.23L16,16,23.13.2H27V25.66H24.23V8l.12-3.69h-.23L22.56,8,15.19,24.14H11.92L4.55,8,3,4.34H2.77L2.88,8V25.66Z"/><path class="cls-3" d="M33.43,25.66V.2H50.57V2.67H36.13V11.6H50v2.5H36.13v9.09H50.57v2.47Z"/><path class="cls-3" d="M55.7,25.66V.2h2.93L70.06,17.14l2.7,4H73V.2h2.73V25.66h-3L61.25,8.71,58.59,4.8H58.4V25.66Z"/><path class="cls-3" d="M82.11,15.63V.2h2.74V15.63c0,5.43,2.24,7.78,7.82,7.78s7.79-2.35,7.79-7.78V.2h2.74V15.63C103.2,22.27,99.09,26,92.67,26S82.11,22.27,82.11,15.63Z"/></g></g></g></svg>