<svg xmlns="http://www.w3.org/2000/svg" viewBox="0 0 128.06 128.06"><defs><style>.cls-1{fill:none;}.cls-2{fill:#bcbcbc;}.cls-3{fill:#010101;}</style></defs><g id="Layer_2" data-name="Layer 2"><g id="Layer_1-2" data-name="Layer 1"><circle class="cls-1" cx="64.03" cy="64.03" r="64.03"/><path class="cls-2" d="M103,44.46a10.18,10.18,0,0,0-7.17-7.17C89.5,35.54,64,35.54,64,35.54s-25.47,0-31.84,1.68A10.4,10.4,0,0,0,25,44.46C23.35,50.83,23.35,64,23.35,64S23.35,77.3,25,83.6a10.18,10.18,0,0,0,7.17,7.17C38.63,92.52,64,92.52,64,92.52s25.47,0,31.84-1.68A10.21,10.21,0,0,0,103,83.67c1.67-6.37,1.67-19.57,1.67-19.57S104.78,50.83,103,44.46ZM55.92,76.23V51.83L77.1,64Z"/><circle class="cls-1" cx="64.03" cy="64.03" r="64.03"/><path class="cls-3" d="M103,44.46a10.18,10.18,0,0,0-7.17-7.17C89.5,35.54,64,35.54,64,35.54s-25.47,0-31.84,1.68A10.4,10.4,0,0,0,25,44.46C23.35,50.83,23.35,64,23.35,64S23.35,77.3,25,83.6a10.18,10.18,0,0,0,7.17,7.17C38.63,92.52,64,92.52,64,92.52s25.47,0,31.84-1.68A10.21,10.21,0,0,0,103,83.67c1.67-6.37,1.67-19.57,1.67-19.57S104.78,50.83,103,44.46ZM55.92,76.23V51.83L77.1,64Z"/></g></g></svg>