<?xml version="1.0" standalone="no"?>
<!DOCTYPE svg PUBLIC "-//W3C//DTD SVG 1.1//EN" "http://www.w3.org/Graphics/SVG/1.1/DTD/svg11.dtd">
<svg xmlns="http://www.w3.org/2000/svg"><metadata>This SVG WebFont was generated by YouWorkForThem.
Copyright Â© 2016 by Deni Anggara. All rights reserved.</metadata><defs><font horiz-adv-x="0" id="ywftsvg"><font-face ascent="800" bbox="-592 -260 1319 1009" cap-height="710" descent="-200" font-family="" font-stretch="normal" font-weight="500" panose-1="0 0 6 0 0 0 0 0 0 0" underline-position="0" underline-thickness="0" unicode-range="U+0020-FB02" units-per-em="1000" x-height="480"/><missing-glyph d="M451 860v-1100h-349v1100h349zM366 786h-181v-36h71v-41h-72v-36h182v36h-72v41h72v36zM294 644h-110v-114h182v37h-72v77zM256 607v-40h-36v40h36zM366 500h-182v-36h72v-41h-72v-36h110v77h72v36zM366 434h-36v-72h-146v-38h182v110zM366 300h-110v-61h38v25h36v-52 h-110v88h-36v-124h182v124zM366 110h-182v-125h182v125zM330 74v-52h-110v52h110zM366 -40h-182v-36h77l-77 -52v-36h182v36h-112l77 52h35v36z" horiz-adv-x="550"/><glyph d="M185 554v-74h281v-86v-394h-100v394h-181v-394h-101q0 232 -1 394h-67v86h67v82q0 89 61.5 134t149.5 23l-20 -94q-41 10 -65 -9t-24 -62zM419 725q28 0 49 -21t21 -50q0 -27 -21 -48.5t-49 -21.5q-29 0 -50 21.5t-21 48.5q0 29 21 50t50 21z" glyph-name="uniFB01" horiz-adv-x="532" unicode="fi"/><glyph d="M524 93l53 -1v-92l-98 1q-102 0 -102 123v270h-192v-394h-101q0 233 -1 394h-67v86h67v79q0 89 61.5 134t149.5 23l-20 -94q-41 10 -65 -9t-24 -62v-71h192v230h102v-571q0 -28 11 -37t34 -9z" glyph-name="uniFB02" horiz-adv-x="618" unicode="fl"/><glyph d="M462 551v-71h95v-86h-94v-394h-101v68t-0.5 160.5t-0.5 165.5h-177v-164.5t0.5 -161t0.5 -68.5h-102v394h-67v86h67v79q0 89 61 134t149 23l-20 -94q-41 10 -65 -9t-24 -62v-71h177v79q0 89 61.5 134t149.5 23l-21 -94q-41 10 -65 -9t-24 -62z" glyph-name="f_f.liga" horiz-adv-x="589" unicode="ff"/><glyph d="M448 554v-74h273v-86v-394h-100v394h-173v-394h-101v394h-169v-165t0.5 -160.5t0.5 -68.5h-102v394h-61v86h61v82q0 89 61.5 134t149.5 23l-21 -94q-41 10 -65 -9t-24 -62v-74h169v82q0 89 61 134t149 23l-20 -94q-41 10 -65 -9t-24 -62zM674 725q28 0 48.5 -21t20.5 -50 q0 -27 -20.5 -48.5t-48.5 -21.5q-29 0 -50 21.5t-21 48.5q0 29 21 50t50 21z" glyph-name="f_f_i.liga" horiz-adv-x="800" unicode="ffi"/><glyph d="M774 93l53 -1v-92l-98 1q-101 0 -101 123v270h-183q0 -70 0.5 -164.5t0.5 -161v-68.5h-102v394h-166v-164.5t0.5 -161t0.5 -68.5h-102v394h-61v86h61v79q0 89 61.5 134t149.5 23l-21 -94q-41 10 -65 -9t-24 -62v-71h166v79q0 89 61 134t149 23l-20 -94q-41 10 -65 -9 t-24 -62v-71h183v230h101l1 -571q0 -28 10.5 -37t33.5 -9z" glyph-name="f_f_l.liga" horiz-adv-x="867" unicode="ffl"/><glyph d="M578 393h-110v-250q0 -28 11.5 -39t33.5 -11h53v-93h-98q-102 1 -102 124v269h-188v-165t0.5 -160t0.5 -68h-102v393h-61v87h61v82q0 89 61.5 134t149.5 23l-21 -94q-41 10 -65 -9t-24 -62v-74h188v152h102v-152h110v-87z" glyph-name="f_t.dlig" horiz-adv-x="619" unicode="ft"/><glyph d="M451 860v-1100h-349v1100h349zM366 786h-181v-36h71v-41h-72v-36h182v36h-72v41h72v36zM294 644h-110v-114h182v37h-72v77zM256 607v-40h-36v40h36zM366 500h-182v-36h72v-41h-72v-36h110v77h72v36zM366 434h-36v-72h-146v-38h182v110zM366 300h-110v-61h38v25h36v-52 h-110v88h-36v-124h182v124zM366 110h-182v-125h182v125zM330 74v-52h-110v52h110zM366 -40h-182v-36h77l-77 -52v-36h182v36h-112l77 52h35v36z" glyph-name=".notdef" horiz-adv-x="550"/><glyph glyph-name="glyph1"/><glyph glyph-name="glyph2" horiz-adv-x="333"/><glyph glyph-name="space" horiz-adv-x="233" unicode=" "/><glyph d="M190 166h-93l-12 258v286h118v-286zM147 -14q-28 0 -48.5 20t-20.5 47q0 28 20 48t49 20q27 0 47.5 -20t20.5 -48q0 -27 -20.5 -47t-47.5 -20z" glyph-name="exclam" horiz-adv-x="288" unicode="!"/><glyph d="M161 676l-20 -185h-59l-21 185q-3 31 13 47t39 14q21 0 36 -15.5t12 -45.5zM311 676l-20 -185h-59l-21 185q-3 31 13 47t39 14q21 0 36 -15.5t12 -45.5z" glyph-name="quotedbl" horiz-adv-x="373" unicode="&quot;"/><glyph d="M655 416h-102l-24 -122h109l-19 -101h-110l-38 -193h-101l38 193h-141l-37 -193h-101l37 193h-96l19 101h97l24 122h-110l19 102h111l38 192h101l-38 -192h141l38 192h101l-38 -192h101zM428 294l24 122h-141l-24 -122h141z" glyph-name="numbersign" horiz-adv-x="744" unicode="#"/><glyph d="M374 400q88 -17 136 -70t48 -134q0 -84 -55.5 -140.5t-146.5 -65.5v-71h-89v74q-85 14 -143 64.5t-68 121.5l103 15q7 -44 53.5 -74.5t111.5 -30.5q62 0 98.5 33.5t34.5 77.5q-2 33 -26.5 60t-69.5 37q-20 4 -58.5 11.5t-57.5 11.5q-76 16 -118 67.5t-42 125.5 q0 78 51 135.5t131 71.5v71h89v-69q80 -10 135.5 -54.5t74.5 -115.5l-101 -27q-12 47 -51.5 72.5t-100.5 25.5q-53 0 -87 -30t-39 -70q-4 -35 16.5 -63.5t63.5 -37.5q19 -4 37 -8t38.5 -8t31.5 -6z" glyph-name="dollar" horiz-adv-x="616" unicode="$"/><glyph d="M223 345q-74 -1 -118.5 51t-44.5 140q0 86 43.5 138.5t115.5 52.5q73 1 117.5 -51.5t44.5 -139.5q0 -86 -43 -138.5t-115 -52.5zM726 710h104l-541 -710h-104zM135 536q0 -53 23.5 -84t62.5 -32q39 1 62 32t23 84q0 52 -23 83t-62 31h-1q-39 0 -62 -31t-23 -83zM955 175 q0 -86 -43 -138t-115 -53q-74 -1 -118.5 51.5t-44.5 139.5q0 86 43.5 138.5t115.5 52.5q73 1 117.5 -51.5t44.5 -139.5zM795 59q39 1 62 32t23 84q0 52 -23 83t-62 31h-1q-39 0 -62 -31t-23 -83q0 -53 23.5 -84t62.5 -32z" glyph-name="percent" horiz-adv-x="995" unicode="%"/><glyph d="M687 91h46v-91h-71q-66 -3 -110 49l-23 25q-85 -78 -207 -83q-69 -2 -125.5 27t-88.5 79q-37 55 -38 119t37 125q36 58 129 105q-52 65 -56 116q-5 62 34.5 110t101.5 55q64 8 113.5 -30.5t54.5 -101.5q4 -51 -23 -90.5t-85 -80.5q21 -26 72 -94t76 -100q8 19 13 49 q8 42 5 84l95 8q2 -55 -5 -95q-9 -69 -43 -128q6 -7 16 -18.5t14 -15.5q20 -23 68 -23zM330 633q-23 -1 -39 -17t-16 -40q-1 -25 23 -56l23 -30q21 14 30 23q42 34 39 69q-4 25 -20.5 38.5t-39.5 12.5zM319 81q87 3 151 65q-33 42 -93.5 122t-80.5 106q-28 -15 -44.5 -24.5 t-35.5 -25.5t-29 -32q-45 -67 -8 -135q19 -36 56 -57t84 -19z" glyph-name="ampersand" horiz-adv-x="747" unicode="&amp;"/><glyph d="M190 598q0 -17 -9 -32l-51 -106h-36l15 73q-24 4 -39.5 23t-15.5 42q0 28 20 48t48 20t48 -20t20 -48z" glyph-name="quotesingle" horiz-adv-x="258" unicode="'"/><glyph d="M292 -28l-57 -62q-85 56 -134 173t-49 248q0 130 49 247t134 173l57 -62q-62 -40 -97.5 -145t-35.5 -213q0 -109 35.5 -214t97.5 -145z" glyph-name="parenleft" horiz-adv-x="297" unicode="("/><glyph d="M5 -28q62 40 97 145t35 214q0 108 -35 213t-97 145l57 62q85 -56 134 -173t49 -247q0 -131 -49 -248t-134 -173z" glyph-name="parenright" horiz-adv-x="297" unicode=")"/><glyph d="M23 611l14 43l86 -27v90h45v-90l86 27l12 -43l-85 -28l54 -77l-37 -26l-53 77l-53 -76l-36 25l54 77z" glyph-name="asterisk" horiz-adv-x="289" unicode="*"/><glyph d="M541 344v-94h-203v-204h-94v204h-204v94h204v203h94v-203h203z" glyph-name="plus" horiz-adv-x="581" unicode="+"/><glyph d="M197 67q0 -18 -9 -32l-51 -106h-36l15 72q-24 5 -39.5 23.5t-15.5 42.5q0 28 20 48t48 20t48 -20t20 -48z" glyph-name="comma" horiz-adv-x="258" unicode=","/><glyph d="M42 314h376v-101h-376v101z" glyph-name="hyphen" horiz-adv-x="460" unicode="-"/><glyph d="M131 -14q-28 0 -48 20t-20 47q0 29 19.5 48.5t48.5 19.5q28 0 48 -20t20 -48q0 -27 -20 -47t-48 -20z" glyph-name="period" horiz-adv-x="262" unicode="."/><glyph d="M0 0l277 710h102l-278 -710h-101z" glyph-name="slash" horiz-adv-x="379" unicode="/"/><glyph d="M610 599q67 -95 67 -243q0 -138 -58 -230q-82 -136 -253 -138h-3h-2q-90 1 -159 42.5t-108 119.5q-44 88 -44 206q0 135 56 228q84 138 255 141h2h3q161 -3 244 -126zM525 184q42 67 42 172q0 109 -47 180q-57 81 -157 83q-104 -2 -160 -89q-44 -66 -44 -174 q0 -90 32 -154q55 -108 172 -110q105 2 162 92z" glyph-name="zero" horiz-adv-x="727" unicode="0"/><glyph d="M167 720h103v-720h-103v547q-21 -8 -44 -8h-88v102h84q48 0 48 56v23z" glyph-name="one" horiz-adv-x="355" unicode="1"/><glyph d="M544 480q-3 -109 -100 -191q-20 -16 -118.5 -90.5t-124.5 -96.5l325 1v-101l-481 -2q0 61 18 102t73 81q38 29 97 73t97 72.5t53 43.5q58 52 59 112q-2 64 -38.5 102.5t-100.5 38.5t-101.5 -37t-37.5 -99h-102q0 104 66 169.5t173 67.5h2h2q103 -1 170 -68.5t69 -169.5 v-4v-4z" glyph-name="two" horiz-adv-x="594" unicode="2"/><glyph d="M350 456q83 -19 135.5 -81.5t52.5 -147.5q0 -101 -71.5 -170t-173.5 -69q-105 0 -175.5 68.5t-70.5 166.5h102q1 -56 41 -95t103 -39q60 0 101.5 39.5t41.5 98.5q0 58 -37.5 98t-95.5 44q-37 4 -75 -8l-34 84l164 163h-280v102h432v-95z" glyph-name="three" horiz-adv-x="588" unicode="3"/><glyph d="M588 239v-101l-88 1v-139h-101v139h-354v101l354 470h101v-471h88zM169 240h230v308z" glyph-name="four" horiz-adv-x="613" unicode="4"/><glyph d="M304 484q109 0 177 -71.5t68 -179.5q0 -102 -75 -174t-180 -72t-177 71.5t-72 174.5h102q0 -61 42 -102t105 -41t107.5 42t45.5 101q2 72 -42.5 116t-115.5 44q-40 0 -75.5 -18t-51.5 -45l-93 24l88 356h366v-102h-286l-42 -155q51 31 109 31z" glyph-name="five" horiz-adv-x="594" unicode="5"/><glyph d="M160 403q25 45 69.5 71.5t93.5 31.5t100 -10t90.5 -47.5t63 -88t20.5 -123.5q-6 -115 -82.5 -184.5t-177.5 -67.5q-91 1 -155 51.5t-93 133t-27 187.5q0 151 64 246q81 121 225 121q73 1 135.5 -29.5t100.5 -88.5l-86 -53q-48 62 -126 69t-136 -46q-68 -56 -79 -173z M496 241q2 45 -13.5 81.5t-42 56.5t-59 30.5t-66.5 3.5t-62.5 -24.5t-48.5 -52.5t-24 -82q-2 -76 40.5 -122.5t107.5 -51.5q65 -6 114.5 38.5t53.5 122.5z" glyph-name="six" horiz-adv-x="643" unicode="6"/><glyph d="M15 710h482v-105q-56 -44 -100.5 -99t-71.5 -104.5t-47 -107.5t-29 -98.5t-14 -87t-5.5 -64.5t-0.5 -40v-4h-104q0 289 153 502q40 56 89 103h-352v105z" glyph-name="seven" horiz-adv-x="512" unicode="7"/><glyph d="M54 191q-2 91 71 151q25 20 55 33q-32 17 -54 40q-51 55 -49 126q0 85 73 140q61 44 150 44q87 0 145 -39q77 -52 80 -143q2 -76 -51 -130q-24 -24 -53 -38q24 -10 42 -22q90 -64 84 -168q-5 -86 -71 -141q-68 -57 -176 -57q-108 -1 -179 61q-64 56 -67 143zM168 530 q-1 -36 23.5 -61.5t63.5 -31.5q53 -13 103 5q42 16 56 54q20 41 -7 79q-10 27 -39 42t-68 15q-59 0 -97 -31q-35 -29 -35 -71zM149 203q2 -43 31 -74q42 -46 120 -47q68 0 113 38q40 34 40 88q-2 52 -46 85q-41 33 -107 33q-70 0 -112 -37q-41 -36 -39 -86z" glyph-name="eight" horiz-adv-x="602" unicode="8"/><glyph d="M574 521q31 -98 20.5 -210t-60.5 -192q-52 -85 -143 -118t-181 -5.5t-143 107.5l86 53q59 -75 153 -69t143 85q32 44 42 116q-29 -47 -78.5 -71.5t-106.5 -23.5q-105 0 -184 75.5t-72 203.5q6 113 86.5 185t182.5 71q96 -1 161.5 -56.5t93.5 -150.5zM309 291 q65 -1 114 42.5t51 121.5q1 79 -44 124.5t-109 47.5q-63 2 -114.5 -41.5t-55.5 -118.5q-3 -81 44.5 -127.5t113.5 -48.5z" glyph-name="nine" horiz-adv-x="657" unicode="9"/><glyph d="M129 345q-28 0 -48.5 20t-20.5 47q0 28 20.5 48t48.5 20q27 0 47.5 -20t20.5 -48q0 -27 -20.5 -47t-47.5 -20zM129 -14q-28 0 -48.5 20t-20.5 47q0 28 20 48t49 20q27 0 47.5 -20t20.5 -48q0 -27 -20.5 -47t-47.5 -20z" glyph-name="colon" horiz-adv-x="257" unicode=":"/><glyph d="M129 345q-28 0 -48.5 20t-20.5 47q0 28 20.5 48t48.5 20q27 0 47.5 -20t20.5 -48q0 -27 -20.5 -47t-47.5 -20zM129 134q27 0 47.5 -20t20.5 -48q0 -14 -9 -32l-52 -106h-35l14 73q-23 5 -39 23.5t-16 41.5q0 28 20.5 48t48.5 20z" glyph-name="semicolon" horiz-adv-x="257" unicode=";"/><glyph d="M373 478v-109l-238 -126l238 -126v-110l-338 182v107z" glyph-name="less" horiz-adv-x="417" unicode="&lt;"/><glyph d="M84 395h377v-88h-377v88zM84 86v88h377v-88h-377z" glyph-name="equal" horiz-adv-x="557" unicode="="/><glyph d="M44 478l338 -182v-107l-338 -182v110l237 126l-237 126v109z" glyph-name="greater" horiz-adv-x="420" unicode=">"/><glyph d="M244 725q97 0 165 -67.5t68 -164.5q0 -55 -20.5 -97t-70.5 -82q-7 -6 -32.5 -25t-39.5 -30.5t-28 -31t-15 -37.5v-24h-101v29q0 27 10 52t29.5 47t35 36t38.5 32t28 22q63 51 63 109q0 59 -37.5 94.5t-92.5 35.5q-52 0 -91 -39t-39 -91h-102q0 97 67.5 164.5t164.5 67.5z M225 123q27 0 48 -20.5t21 -47.5t-21 -47.5t-48 -20.5q-29 0 -49 20t-20 48t20 48t49 20z" glyph-name="question" horiz-adv-x="541" unicode="?"/><glyph d="M725 474q29 -91 1 -182q-20 -67 -71 -100.5t-103.5 -25.5t-82.5 49q-47 -44 -118 -44q-56 0 -92 30.5t-36 78.5q-1 63 47 102q37 31 115 31h68h3q2 28 -16 44t-47 16q-65 0 -88 -54q-4 2 -30.5 12t-35.5 14q57 104 172 104q59 0 94 -38t30 -96l-9 -104q-7 -48 29 -62 q35 -13 67 17q19 17 27 45q20 79 -8 152q-26 75 -93 120.5t-153 45.5q-113 0 -194 -80.5t-81 -192.5q0 -114 80.5 -194.5t194.5 -80.5q95 0 168 62l56 -62q-97 -82 -224 -82q-147 0 -252 105.5t-105 251.5t105 250.5t252 104.5q116 0 206.5 -63.5t123.5 -173.5zM357 254 q73 0 89 90h-72q-32 0 -49.5 -14t-18.5 -37q-1 -19 13 -29t38 -10z" glyph-name="at" horiz-adv-x="782" unicode="@"/><glyph d="M581 0l-73 186h-308l-72 -186h-118l287 710h108h7l287 -710h-118zM236 277h237l-119 303z" glyph-name="A" horiz-adv-x="709" unicode="A"/><glyph d="M596 199v-1q-1 -90 -63.5 -143.5t-169.5 -54.5h-192h-101v710h60h41q33 0 99.5 -0.5t79.5 -0.5q110 -1 173.5 -54.5t64.5 -144.5v-1q0 -97 -78 -153q86 -55 86 -157zM347 613h-176v-214h177q65 0 97.5 30.5t31.5 79.5q-2 46 -35.5 75t-94.5 29zM358 98q52 0 89 26.5 t39 74.5q2 51 -34 81t-96 30h-185v-212h187z" glyph-name="B" horiz-adv-x="635" unicode="B"/><glyph d="M707 517l-102 -38q-23 61 -79 100.5t-130 39.5q-103 0 -173.5 -76t-70.5 -188q0 -111 70 -185.5t174 -74.5q72 0 130 36.5t86 94.5l101 -47q-40 -88 -125 -140t-192 -52q-146 0 -250 107.5t-104 260.5t104 261.5t250 108.5q68 0 125 -21.5t93.5 -56t58.5 -66.5t34 -64z " glyph-name="C" horiz-adv-x="752" unicode="C"/><glyph d="M320 711q159 0 261 -99.5t102 -256.5q0 -158 -101 -256.5t-262 -98.5h-173h-63v711h101h135zM320 93q117 0 185 71t68 191q0 119 -68.5 191t-184.5 72h-135v-525h135z" glyph-name="D" horiz-adv-x="724" unicode="D"/><glyph d="M185 100h336l-1 -100h-430h-6v710h101h336l-1 -101h-335v-202h303l-1 -98h-302v-209z" glyph-name="E" horiz-adv-x="579" unicode="E"/><glyph d="M520 609l-335 1v-215l284 -1l-1 -97h-283v-297h-101v710h101l336 -1z" glyph-name="F" horiz-adv-x="561" unicode="F"/><glyph d="M383 307v95h339v-402h-101v77q-79 -90 -218 -90q-164 0 -263 103.5t-99 261.5q0 155 104 264t253 109q117 0 204.5 -57t126.5 -155l-102 -36q-30 69 -90.5 107.5t-138.5 38.5q-105 0 -176 -78t-71 -193q0 -114 70.5 -186.5t181.5 -72.5q35 0 68.5 9.5t66.5 30.5t55.5 63 t27.5 100v11h-238z" glyph-name="G" horiz-adv-x="784" unicode="G"/><glyph d="M524 710h100v-710h-100v310l-339 1v-311h-101v710h101v-301l339 -1v302z" glyph-name="H" horiz-adv-x="708" unicode="H"/><glyph d="M185 0h-101v710h101v-710z" glyph-name="I" horiz-adv-x="269" unicode="I"/><glyph d="M341 710h101v-514q0 -93 -58.5 -151t-155.5 -57q-97 0 -152.5 58t-55.5 152v24h101v-24q0 -42 21.5 -69t44 -35.5t41.5 -7.5q21 -1 45.5 8t46 37t21.5 70v509z" glyph-name="J" horiz-adv-x="516" unicode="J"/><glyph d="M618 710l-287 -358l284 -352h-136l-215 269l-79 -99v-171h-101v711h101v-376l297 376h136z" glyph-name="K" horiz-adv-x="634" unicode="K"/><glyph d="M185 101h309v-101h-396h-14v710h101v-609z" glyph-name="L" horiz-adv-x="521" unicode="L"/><glyph d="M774 0h-101v454l-194 -454h-100l-195 454v-454h-100v710h100l245 -589l244 589h101v-710z" glyph-name="M" horiz-adv-x="858" unicode="M"/><glyph d="M646 710v-710h-100l-362 535v-535h-100v710h100l362 -535v535h100z" glyph-name="N" horiz-adv-x="730" unicode="N"/><glyph d="M741 354q0 160 -99.5 265t-251.5 105q-150 0 -249 -105.5t-99 -264.5q0 -157 100.5 -262t248.5 -105q152 0 251 103t99 264zM630 354q0 -118 -65.5 -189t-173.5 -71q-104 0 -171 72.5t-67 187.5q0 117 66 190.5t171 73.5q108 0 174 -73t66 -191z" glyph-name="O" horiz-adv-x="783" unicode="O"/><glyph d="M579 494v-1q0 -100 -61 -159.5t-166 -63.5v-1h-167v-269h-101v710h101q29 0 86 -0.5t70 -0.5q112 -1 175 -56t63 -159zM339 367q66 0 101.5 35t34.5 91q-2 56 -36 88t-101 32h-153v-246h154z" glyph-name="P" horiz-adv-x="611" unicode="P"/><glyph d="M742 356q0 -160 -98 -264l83 -95h-115l-35 40q-83 -51 -187 -51q-148 0 -249 106.5t-101 263.5q0 159 99.5 264.5t250.5 105.5q152 0 252 -105t100 -265zM390 88q65 0 116 28l-100 113h117l50 -57q57 72 57 184q0 118 -66.5 192.5t-173.5 74.5q-105 0 -171.5 -75 t-66.5 -192q0 -115 67 -191.5t171 -76.5z" glyph-name="Q" horiz-adv-x="796" unicode="Q"/><glyph d="M562 365q-40 -45 -93 -65l138 -300h-115l-126 284h-180v-284h-102v710h102l185 -1q121 0 183 -66q52 -51 53.5 -138t-45.5 -140zM186 613v-234h180q77 0 109 43q23 32 21.5 78t-27.5 74q-32 38 -103 38z" glyph-name="R" horiz-adv-x="649" unicode="R"/><glyph d="M555 552l-101 -27q-12 45 -56 71.5t-100 26.5q-51 0 -87.5 -26t-45.5 -67q-6 -37 15.5 -68t69.5 -40q30 -7 110 -21q90 -17 139 -70t49 -135q0 -96 -73 -152t-178 -56q-102 0 -179.5 51.5t-84.5 139.5l102 15q7 -47 56 -76t110 -29q63 0 102.5 30.5t38.5 75.5 q0 31 -22 58t-62 38q-37 10 -137 29q-77 17 -119 66t-42 127q0 89 69 150t167 61q99 0 170.5 -49t88.5 -123z" glyph-name="S" horiz-adv-x="594" unicode="S"/><glyph d="M571 710v-101h-227v-609h-101v609h-227v101h555z" glyph-name="T" horiz-adv-x="586" unicode="T"/><glyph d="M524 710h102v-460q0 -116 -82 -190.5t-193 -74.5t-193 74.5t-82 190.5v460h102v-460q0 -71 53.5 -117.5t119.5 -46.5t119.5 46.5t53.5 117.5v460z" glyph-name="U" horiz-adv-x="702" unicode="U"/><glyph d="M552 710h118l-280 -710h-100l-280 710h118l212 -574z" glyph-name="V" horiz-adv-x="680" unicode="V"/><glyph d="M950 710h119l-237 -710h-102l-187 539l-188 -539h-101l-237 710h119l169 -550l178 550h119l178 -550z" glyph-name="W" horiz-adv-x="1086" unicode="W"/><glyph d="M619 0h-120l-184 272l-185 -272h-119l244 360l-237 350h119l177 -262l178 262h119l-237 -350z" glyph-name="X" horiz-adv-x="629" unicode="X"/><glyph d="M600 710l-245 -416v-294h-100v292l-245 418h119l175 -320v1l177 319h119z" glyph-name="Y" horiz-adv-x="610" unicode="Y"/><glyph d="M534 710v-101l-372 -508h367v-101h-486l-2 101l372 508l-371 -1v101z" glyph-name="Z" horiz-adv-x="577" unicode="Z"/><glyph d="M263 10v-82h-211v855h211v-82h-124v-691h124z" glyph-name="bracketleft" horiz-adv-x="268" unicode="["/><glyph d="M379 0h-101l-278 710h102z" glyph-name="backslash" horiz-adv-x="379" unicode="\"/><glyph d="M5 10h124v690h-124v82h212v-854h-212v82z" glyph-name="bracketright" horiz-adv-x="268" unicode="]"/><glyph d="M402 480h-101l-53 118l-52 -118h-101l103 230h101z" glyph-name="asciicircum" horiz-adv-x="480" unicode="^"/><glyph d="M60 -17h337v-76h-337v76z" glyph-name="underscore" horiz-adv-x="425" unicode="_"/><glyph d="M89 779l-91 167h111l86 -167h-106z" glyph-name="grave" horiz-adv-x="230" unicode="`"/><glyph d="M267 495q83 1 139 -47.5t56 -132.5v-319h-99v49q-55 -58 -135 -58t-131 42.5t-52 111.5q-3 85 68 132q41 28 134 28h83q35 0 32 32q-8 70 -96 72q-91 3 -134 -71l-76 42q68 119 211 119zM226 73q59 -2 96 30t41 93v28q-34 -2 -115 -2q-54 0 -83.5 -21.5t-27.5 -59.5 q1 -33 26.5 -50t62.5 -18z" glyph-name="a" horiz-adv-x="520" unicode="a"/><glyph d="M343 497q98 -2 164 -75.5t62 -193.5h-1q-6 -116 -72.5 -179t-154.5 -63q-101 0 -165 72v-58h-102v710h102v-290q63 77 167 77zM324 75q58 0 100.5 41.5t46.5 118.5q1 78 -41 125.5t-104 47.5q-61 0 -103.5 -44.5t-43.5 -120.5q-1 -80 42 -124.5t103 -43.5z" glyph-name="b" horiz-adv-x="605" unicode="b"/><glyph d="M504 345l-89 -32q-33 89 -132 89q-66 0 -106.5 -47t-40.5 -117q0 -69 40.5 -115.5t106.5 -46.5q48 0 80.5 22.5t45.5 54.5l87 -34q-25 -61 -82 -96.5t-131 -35.5q-102 0 -174.5 73t-72.5 178t72.5 180t174.5 75q77 0 137.5 -40.5t83.5 -107.5z" glyph-name="c" horiz-adv-x="533" unicode="c"/><glyph d="M429 710h102v-710h-102v60q-65 -79 -167 -77q-97 0 -163.5 74t-62.5 194h1q6 116 72 179t155 67q100 3 165 -67v280zM279 72q61 0 103.5 44.5t43.5 119.5q1 82 -41.5 127.5t-103.5 44.5q-58 -2 -100 -44t-46 -119h-1q-1 -78 41 -125.5t104 -47.5z" glyph-name="d" horiz-adv-x="602" unicode="d"/><glyph d="M517 239l-1 -39h-380q13 -51 52 -84t89 -33q45 0 79 20t48 53l88 -33q-25 -62 -83 -99t-132 -37q-99 0 -170 75t-71 180t71 179.5t170 74.5q75 0 134.5 -39.5t85.5 -106.5q9 -22 14 -49.5t5 -44.5zM134 277h286q-6 38 -30 67q-37 58 -113 58q-51 0 -91.5 -35.5 t-51.5 -89.5z" glyph-name="e" horiz-adv-x="553" unicode="e"/><glyph d="M188 554v-74h94v-87h-94v-165t0.5 -160t0.5 -68h-102v393h-71v87h71v82q0 89 61.5 134t149.5 23l-21 -94q-41 10 -65 -9t-24 -62z" glyph-name="f" horiz-adv-x="314" unicode="f"/><glyph d="M426 481h102v-466q0 -97 -54 -167q-69 -88 -187 -88q-112 0 -182 67q-39 38 -59 95l88 32q11 -37 38 -59q45 -41 112 -39q80 3 115 59q27 40 27 100v55q-57 -69 -150 -69q-104 -1 -170 65.5t-67 181.5q1 115 65.5 182.5t171.5 66.5q93 -2 150 -69v53zM286 91 q59 0 98.5 43.5t40.5 115.5v1v1v1q-1 72 -42 112.5t-97 40.5q-65 0 -106.5 -43.5t-41.5 -114.5t41.5 -114t106.5 -43z" glyph-name="g" horiz-adv-x="594" unicode="g"/><glyph d="M322 508q47 0 86 -13t71.5 -41t51 -78.5t18.5 -119.5v-256h-102v252q0 77 -35.5 115t-89.5 38q-57 0 -99 -41t-47 -118l-1 -246h-101v710h102v-272q54 70 146 70z" glyph-name="h" horiz-adv-x="615" unicode="h"/><glyph d="M129 576q-30 0 -51.5 21.5t-21.5 50.5t21.5 50.5t51.5 21.5q28 0 49 -21.5t21 -50.5t-21 -50.5t-49 -21.5zM75 480h101v-480h-101v480z" glyph-name="i" horiz-adv-x="255" unicode="i"/><glyph d="M150 572q-30 0 -52 22t-22 52q0 31 21.5 52.5t52.5 21.5t52 -21.5t21 -52.5q0 -30 -21.5 -52t-51.5 -22zM-22 -240v106q73 0 96.5 31.5t26.5 94.5l-2 489h105l-3 -503q0 -27 -3.5 -51.5t-17 -56.5t-36.5 -55t-65.5 -39t-100.5 -16z" glyph-name="j" horiz-adv-x="281" unicode="j"/><glyph d="M368 0l-152 208l-41 -43v-165h-101v710h101v-416l181 186h124l-200 -207l200 -273h-112z" glyph-name="k" horiz-adv-x="488" unicode="k"/><glyph d="M274 0l-98 1q-102 0 -102 123v586h101l1 -571q0 -28 11 -37t33 -9l54 -1v-92z" glyph-name="l" horiz-adv-x="315" unicode="l"/><glyph d="M613 495q87 0 140 -59t53 -151v-285h-99l2 290q0 55 -31 84.5t-76 29.5q-47 0 -80.5 -33t-34.5 -87v-284h-98l1 291q0 53 -29.5 83.5t-73.5 30.5q-45 0 -77.5 -30t-36.5 -83v-292h-99v481h99v-48q47 59 126 63q115 0 164 -100q47 98 150 99z" glyph-name="m" horiz-adv-x="872" unicode="m"/><glyph d="M328 496q43 0 79 -12.5t67 -38.5t49 -73.5t18 -113.5v-258h-99v253q0 76 -32.5 113t-86.5 39q-60 3 -103.5 -37t-47.5 -113v-255h-98l1 480h97v-64q57 80 156 80z" glyph-name="n" horiz-adv-x="607" unicode="n"/><glyph d="M521 240q0 -107 -69.5 -180t-172.5 -73q-100 0 -171.5 74.5t-71.5 178.5q0 106 70.5 180.5t172.5 74.5t172 -74t70 -181zM421 239q0 69 -39 114.5t-103 45.5q-65 0 -104 -46t-39 -114q0 -66 40 -112t103 -46q65 0 103.5 44.5t38.5 113.5z" glyph-name="o" horiz-adv-x="557" unicode="o"/><glyph d="M343 497q98 -2 164 -75.5t62 -193.5h-1q-7 -113 -71.5 -178t-156.5 -67q-98 0 -160 71v-280h-106v706h106v-56q62 73 163 73zM322 72q59 1 102 43t47 120q1 78 -41 125.5t-104 47.5q-61 0 -102.5 -44t-43.5 -118v-26q4 -69 45.5 -109t96.5 -39z" glyph-name="p" horiz-adv-x="605" unicode="p"/><glyph d="M425 481h106v-706h-106v247q-59 -70 -147 -70q-109 -1 -174.5 73.5t-67.5 195.5q1 122 66.5 198t175.5 76q89 0 147 -70v56zM281 46q56 0 97.5 40.5t46.5 110.5v55q-5 69 -46 109.5t-98 41.5q-64 0 -105 -49.5t-42 -130.5q1 -81 42 -129.5t105 -47.5z" glyph-name="q" horiz-adv-x="605" unicode="q"/><glyph d="M173 420q45 66 163 60v-92q-68 13 -113 -25.5t-49 -108.5v-254h-99l-1 480h99v-60z" glyph-name="r" horiz-adv-x="356" unicode="r"/><glyph d="M406 372l-93 -21q-7 28 -32.5 43.5t-60.5 14.5q-32 0 -53.5 -15.5t-23.5 -40.5q-5 -44 47 -56q60 -15 95 -22q117 -28 117 -141q0 -65 -49.5 -106t-126.5 -41q-76 0 -129.5 35.5t-65.5 95.5l95 16q5 -27 32 -43.5t68 -16.5q38 0 59 15t21 43q0 40 -56 52q-40 8 -91 22 q-52 13 -81.5 50t-29.5 87q0 64 49.5 108.5t121.5 44.5q71 0 122 -34t65 -90z" glyph-name="s" horiz-adv-x="445" unicode="s"/><glyph d="M301 394h-98v-255q0 -28 11 -37t33 -9l54 -1v-92l-98 1q-102 0 -102 123v270h-85v86h85v152h102v-152h98v-86z" glyph-name="t" horiz-adv-x="342" unicode="t"/><glyph d="M429 480h99v-480h-99v58q-48 -71 -145 -71q-215 0 -215 238v255h99v-250q0 -76 35 -114.5t91 -38.5q63 0 99 44t36 132v227z" glyph-name="u" horiz-adv-x="597" unicode="u"/><glyph d="M401 480h102l-202 -480h-94h-1l-196 480h102l142 -363z" glyph-name="v" horiz-adv-x="513" unicode="v"/><glyph d="M646 480h104l-166 -480h-93h-1l-109 325l-113 -325h-93h-1l-161 480h106l103 -334l107 334h106l103 -334z" glyph-name="w" horiz-adv-x="764" unicode="w"/><glyph d="M297 240l172 -240h-109l-120 169l-120 -169h-109l172 240l-171 240h108l120 -169l120 169h108z" glyph-name="x" horiz-adv-x="479" unicode="x"/><glyph d="M417 480h106l-283 -704h-106l91 227l-217 477h107l159 -356z" glyph-name="y" horiz-adv-x="533" unicode="y"/><glyph d="M417 480v-92l-255 -296h255v-92h-379v92l259 296h-259v92h379z" glyph-name="z" horiz-adv-x="455" unicode="z"/><glyph d="M207 472q0 -70 -55 -117q55 -47 55 -118v-174q0 -65 61 -65v-71q-32 0 -52 5q-42 9 -66.5 39t-24.5 77v173q0 46 -26.5 69.5t-50.5 23.5v78q22 0 49.5 26t27.5 70v174q0 97 95 116q24 4 48 4v-72q-61 0 -61 -53v-185z" glyph-name="braceleft" horiz-adv-x="289" unicode="{"/><glyph d="M53 788h101v-878h-101v878z" glyph-name="bar" horiz-adv-x="207" unicode="|"/><glyph d="M148 488q0 -44 27.5 -70t49.5 -26v-78q-24 0 -50.5 -23.5t-26.5 -69.5v-171q0 -47 -24.5 -77t-66.5 -39q-20 -5 -52 -5v71q61 0 61 65v172q0 71 55 118q-55 47 -55 117v185q0 53 -61 53v72q25 0 47 -4q96 -19 96 -116v-174z" glyph-name="braceright" horiz-adv-x="276" unicode="}"/><glyph d="M361 354h62q0 -45 -32 -75.5t-79 -30.5q-41 0 -99 43q-42 30 -65 30q-21 0 -33 -10.5t-14 -25.5h-61q0 45 31.5 75.5t79.5 30.5q41 0 98 -42q42 -31 66 -31q21 0 32.5 10.5t13.5 25.5z" glyph-name="asciitilde" horiz-adv-x="463" unicode="~"/><glyph d="M147 610q27 0 47.5 -20t20.5 -47q0 -28 -20.5 -48t-47.5 -20q-28 0 -48.5 20t-20.5 48q0 27 20.5 47t48.5 20zM190 431l13 -259v-286h-118v286l12 259h93z" glyph-name="exclamdown" horiz-adv-x="288" unicode="¡"/><glyph d="M44 356q0 90 55 159.5t138 88.5l-1 106h89v-102q66 -8 116 -47t71 -98l-90 -32q-32 89 -132 89q-66 0 -106.5 -47.5t-40.5 -116.5q0 -70 40.5 -117.5t106.5 -47.5q94 0 126 79l90 -35q-22 -53 -70.5 -87.5t-110.5 -42.5v-106h-89l1 110q-83 18 -138 87.5t-55 159.5z" glyph-name="cent" horiz-adv-x="555" unicode="¢"/><glyph d="M575 217q7 -98 -49 -157.5t-154 -59.5h-341v101q39 0 69.5 33.5t38 82t-6.5 101.5h-108v88h79q-18 62 -7 118q8 87 68.5 141t150.5 54q75 0 134.5 -44.5t80.5 -114.5q-5 -2 -96 -31q-11 40 -44.5 66.5t-74.5 26.5q-50 0 -81.5 -29t-37.5 -78q-8 -45 11 -109h248v-88h-221 q15 -58 -1.5 -122.5t-63.5 -94.5h203q111 0 102 110z" glyph-name="sterling" horiz-adv-x="602" unicode="£"/><glyph d="M560 353q0 -76 -45 -139l68 -70l-67 -66l-68 71q-62 -40 -133 -40q-77 0 -138 44l-71 -70l-66 68l71 69q-40 61 -40 133q0 77 44 140l-69 68l66 67l70 -69q62 39 133 39q77 0 141 -45l67 67l66 -65l-68 -69q39 -63 39 -133zM165 353q0 -61 44.5 -105.5t105.5 -44.5 q62 0 106.5 44.5t44.5 105.5q0 62 -44.5 106.5t-106.5 44.5t-106 -44.5t-44 -106.5z" glyph-name="currency" horiz-adv-x="629" unicode="¤"/><glyph d="M615 710l-206 -349h117v-85h-157v-63h157v-85h-157v-128h-100v128h-158v85h158v63h-158v85h119l-205 349h119l175 -320v1l177 319h119z" glyph-name="yen" horiz-adv-x="640" unicode="¥"/><glyph d="M136 791h101v-338h-101v338zM136 278h101v-348h-101v348z" glyph-name="brokenbar" horiz-adv-x="373" unicode="¦"/><glyph d="M442 360q0 -67 -51 -110q49 -39 49 -112q0 -66 -49.5 -109t-125.5 -43t-130 36.5t-66 96.5l95 16q5 -28 31.5 -44t69.5 -16q37 0 58 16.5t21 44.5q0 41 -55 52q-84 21 -91 23q-52 13 -82 50t-30 89q0 69 56 114q-54 37 -54 108q0 65 49.5 109t121.5 44q71 0 122 -33.5 t65 -91.5l-92 -21q-17 58 -95 58q-32 0 -52.5 -15t-23.5 -40q-5 -44 47 -57q15 -4 47.5 -11t46.5 -11q118 -30 118 -143zM351 352q0 14 -5 24q-13 27 -51 35q-10 2 -17 2q-1 0 -5 0.5t-6 0.5h-4q-39 0 -59 -19t-20 -43q0 -22 15.5 -38t47.5 -18q3 0 9 -0.5t9 -1.5h3 q37 -1 60 15t23 43z" glyph-name="section" horiz-adv-x="516" unicode="§"/><glyph d="M93 789q-31 0 -52 21t-21 50q0 30 21 51t52 21q29 0 50 -21.5t21 -50.5t-21 -50t-50 -21zM295 789q-30 0 -51.5 21t-21.5 50q0 30 21.5 51t51.5 21q29 0 50.5 -21.5t21.5 -50.5t-21.5 -50t-50.5 -21z" glyph-name="dieresis" horiz-adv-x="387" unicode="¨"/><glyph d="M410 -13q-154 0 -262 108.5t-108 262.5q0 153 108.5 261t261.5 108q154 0 262 -108t108 -261q0 -154 -108 -262.5t-262 -108.5zM410 72q118 0 201.5 83.5t83.5 202.5q0 118 -83.5 201t-201.5 83t-201 -83t-83 -201q0 -119 83 -202.5t201 -83.5zM575 431l-67 -23 q-22 66 -96 66q-47 0 -75.5 -34.5t-28.5 -83.5t28.5 -83t75.5 -34q69 0 91 58l68 -27q-18 -45 -61.5 -72t-97.5 -27q-73 0 -126.5 54t-53.5 131t53 131.5t127 54.5q58 0 102.5 -30t60.5 -81z" glyph-name="copyright" horiz-adv-x="820" unicode="©"/><glyph d="M310 480l-162 -240l162 -240h-108l-162 240l162 240h108zM535 480l-162 -240l162 -240h-108l-162 240l162 240h108z" glyph-name="guillemotleft" horiz-adv-x="559" unicode="«"/><glyph d="M511 76h-94v173h-377v94h471v-267z" glyph-name="logicalnot" horiz-adv-x="551" unicode="¬"/><glyph d="M174 723q63 0 107.5 -44.5t44.5 -107.5q0 -64 -44.5 -109t-107.5 -45q-64 0 -109 44.5t-45 109.5q0 63 45 107.5t109 44.5zM174 450q50 0 85 35t35 86q0 50 -35 85t-85 35q-51 0 -86 -35t-35 -85q0 -52 34.5 -86.5t86.5 -34.5zM226 594q-2 -26 -22 -35l25 -57h-34l-23 52 h-15v-52h-29v137h29h17q50 2 52 -38v-3v-4zM157 610v-29h24v-1q13 1 13 18q-2 12 -20 12h-17z" glyph-name="registered" horiz-adv-x="346" unicode="®"/><glyph d="M24 899h304v-91h-304v91z" glyph-name="macron" horiz-adv-x="351" unicode="¯"/><glyph d="M135 495q-47 0 -81 34t-34 81t34 81t81 34t81 -34t34 -81t-34 -81t-81 -34zM135 562q19 0 33.5 14.5t14.5 33.5t-14.5 33.5t-33.5 14.5t-33.5 -14t-14.5 -34t14.5 -34t33.5 -14z" glyph-name="degree" horiz-adv-x="270" unicode="°"/><glyph d="M311 377h163v-94h-163v-104h-94v104h-164v94h164v103h94v-103zM53 0v95h421v-95h-421z" glyph-name="plusminus" horiz-adv-x="527" unicode="±"/><glyph d="M293 596q1 -20 -3.5 -38t-10.5 -30t-23 -28t-27.5 -24.5t-38 -29t-41.5 -31.5h135v-72l-253 -1q-2 39 8.5 63.5t39.5 44.5q98 75 116 91q22 19 26 38q3 32 -15.5 49.5t-50.5 13.5q-51 -6 -43 -64h-73q-4 60 35 98.5t100 37.5q53 0 85 -32.5t34 -85.5z" glyph-name="uni00B2" horiz-adv-x="324" unicode="²"/><glyph d="M286 545q28 -35 28 -80q0 -54 -37.5 -90.5t-91.5 -36.5q-57 0 -95 40t-33 96h72q-5 -27 11.5 -45.5t44.5 -18.5q24 0 40.5 15.5t16.5 39.5q0 28 -21 44q-29 24 -67 5l-30 57l65 66h-118v73h230v-63l-65 -66q33 -13 50 -36z" glyph-name="uni00B3" horiz-adv-x="371" unicode="³"/><glyph d="M110 779h-109l86 167h115z" glyph-name="acute" horiz-adv-x="222" unicode="´"/><glyph d="M573 93l53 -1v-92l-98 1q-69 0 -91 58q-47 -69 -141 -72h-4h-4q-83 1 -131 59v-287h-100v720h100v-226q0 -88 36.5 -132t98.5 -44q60 0 95.5 40t39.5 120v243h101v-341q0 -28 11 -37t34 -9z" glyph-name="uni00B5" horiz-adv-x="674" unicode="µ"/><glyph d="M40 510q0 73 44.5 129t113.5 73h101v-710h-101v305q-69 17 -113.5 73.5t-44.5 129.5zM359 710h46v-710h-46v710z" glyph-name="paragraph" horiz-adv-x="445" unicode="¶"/><glyph d="M145 165q-38 0 -65.5 27t-27.5 64q0 38 27.5 65t65.5 27q37 0 64.5 -27t27.5 -65q0 -37 -27.5 -64t-64.5 -27z" glyph-name="periodcentered" horiz-adv-x="290" unicode="·"/><glyph d="M240 -160v52h87q21 0 21 21q0 17 -21 17h-87v53l44 58l48 -1v-29l-23 -29h32q31 0 48.5 -22.5t16.5 -50.5q-1 -27 -19 -48t-44 -21h-103z" glyph-name="cedilla" horiz-adv-x="600" unicode="¸"/><glyph d="M198 342h-73v256q-3 -1 -9 -1h-59v73h43q21 0 25 20v20h73v-368z" glyph-name="uni00B9" horiz-adv-x="254" unicode="¹"/><glyph d="M132 480l162 -240l-162 -240h-109l162 240l-162 240h109zM357 480l162 -240l-162 -240h-109l162 240l-162 240h109z" glyph-name="guillemotright" horiz-adv-x="559" unicode="»"/><glyph d="M104 598q-3 -1 -9 -1h-59v73h43q21 0 25 20v20h73v-367h-73v255zM626 710h104l-541 -710h-104zM903 135v-73h-47v-69h-75v69h-173v74l173 232h75v-233h47zM698 136l83 -1v112z" glyph-name="onequarter" horiz-adv-x="953" unicode="¼"/><glyph d="M104 598q-3 -1 -9 -1h-59v73h43q21 0 25 20v20h73v-367h-73v255zM626 710h104l-541 -710h-104zM868 257q2 -21 -2.5 -39.5t-10.5 -30.5t-23 -28.5t-27.5 -25t-38.5 -29.5t-42 -32h135v-72l-254 -1q-1 40 9.5 64t38.5 44q49 38 116 91q21 16 25 34q6 33 -13 52.5t-54 14.5 q-49 -10 -41 -64h-73q-4 60 35 98.5t100 37.5q51 1 83 -30.5t36 -83.5h1z" glyph-name="onehalf" horiz-adv-x="909" unicode="½"/><glyph d="M308 464q0 -54 -37.5 -90.5t-91.5 -36.5q-57 0 -95 40t-33 96h72q-5 -27 11.5 -46t44.5 -19q24 0 40.5 16t16.5 40q0 28 -20 45q-29 24 -68 5l-30 57l65 66h-118v73h230v-63l-65 -66q33 -13 50 -36q28 -35 28 -81zM727 710h104l-541 -710h-104zM1004 135v-73h-47v-69h-75 v69h-173v74l173 232h75v-233h47zM799 136l83 -1v112z" glyph-name="threequarters" horiz-adv-x="1054" unicode="¾"/><glyph d="M316 488q-28 0 -48.5 20.5t-20.5 48.5q0 27 20.5 47.5t48.5 20.5t48.5 -20.5t20.5 -47.5q0 -28 -20.5 -48.5t-48.5 -20.5zM426 119h103q0 -97 -67.5 -164.5t-165.5 -67.5t-165 67.5t-67 164.5q0 54 20.5 96t70.5 82q9 7 33 25.5t39 30.5t28.5 31t14.5 37v24h101v-29 q0 -26 -10 -51t-29.5 -47t-35 -36.5t-38.5 -32.5t-28 -22q-64 -52 -64 -108q0 -59 38 -95t92 -36q53 0 91.5 39t38.5 92z" glyph-name="questiondown" horiz-adv-x="593" unicode="¿"/><glyph d="M409 779h-106l-91 167h111zM581 0l-73 186h-308l-72 -186h-118l287 710h108h7l287 -710h-118zM236 277h237l-119 303z" glyph-name="Agrave" horiz-adv-x="709" unicode="À"/><glyph d="M504 946l-92 -167h-109l86 167h115zM581 0l-73 186h-308l-72 -186h-118l287 710h108h7l287 -710h-118zM236 277h237l-119 303z" glyph-name="Aacute" horiz-adv-x="709" unicode="Á"/><glyph d="M356 877l-54 -98h-92l85 167h98h23l86 -167h-93zM581 0l-73 186h-308l-72 -186h-118l287 710h108h7l287 -710h-118zM236 277h237l-119 303z" glyph-name="Acircumflex" horiz-adv-x="709" unicode="Â"/><glyph d="M258 836h-77q-5 50 25.5 86.5t76.5 36.5q67 0 103 -63q26 -37 47 -37q16 0 22.5 15t-1.5 37h81q6 -53 -24.5 -92t-77.5 -39q-68 0 -107 67q-13 20 -21 26.5t-22 6.5q-13 0 -20.5 -13t-4.5 -31zM581 0l-73 186h-308l-72 -186h-118l287 710h108h7l287 -710h-118zM236 277 h237l-119 303z" glyph-name="Atilde" horiz-adv-x="709" unicode="Ã"/><glyph d="M256 789q-31 0 -52 21t-21 50q0 30 21 51t52 21q29 0 50 -21.5t21 -50.5t-21 -50t-50 -21zM458 789q-30 0 -51.5 21t-21.5 50q0 30 21.5 51t51.5 21q29 0 50.5 -21.5t21.5 -50.5t-21.5 -50t-50.5 -21zM581 0l-73 186h-308l-72 -186h-118l287 710h108h7l287 -710h-118z M236 277h237l-119 303z" glyph-name="Adieresis" horiz-adv-x="709" unicode="Ä"/><glyph d="M356 758q-53 0 -88.5 36t-35.5 89q0 51 36.5 88.5t87.5 37.5t87.5 -37.5t36.5 -88.5q0 -52 -36.5 -88.5t-87.5 -36.5zM356 940q-24 0 -40 -16t-16 -39q0 -25 16 -41.5t40 -16.5t40 16.5t16 41.5q0 23 -16 39t-40 16zM581 0l-73 186h-308l-72 -186h-118l287 710h108h7 l287 -710h-118zM236 277h237l-119 303z" glyph-name="Aring" horiz-adv-x="709" unicode="Å"/><glyph d="M886 100l-1 -100l-335 1v-1h-101v186h-242l-69 -186h-118l276 710h109h44h101l336 -1l-1 -101l-335 1v-202h303l-1 -98h-302v-208zM242 277h207v332h-82z" glyph-name="AE" horiz-adv-x="940" unicode="Æ"/><glyph d="M713 179q-37 -80 -111 -130.5t-168 -59.5l-21 -27h32q31 0 48.5 -22.5t16.5 -50.5q-1 -27 -19 -48t-44 -21h-103v52h87q21 0 21 21q0 17 -21 17h-87v53l19 26q-135 13 -228 118t-93 248q0 153 104 261.5t250 108.5q68 0 125 -21.5t93.5 -56t58.5 -66.5t34 -64l-102 -38 q-23 61 -79 100.5t-130 39.5q-103 0 -173.5 -76t-70.5 -188q0 -111 70 -185.5t174 -74.5q72 0 130 36.5t86 94.5z" glyph-name="Ccedilla" horiz-adv-x="752" unicode="Ç"/><glyph d="M350 778h-106l-91 167h111zM185 100h336l-1 -100h-430h-6v710h101h336l-1 -101h-335v-202h303l-1 -98h-302v-209z" glyph-name="Egrave" horiz-adv-x="579" unicode="È"/><glyph d="M445 945l-92 -167h-109l86 167h115zM185 100h336l-1 -100h-430h-6v710h101h336l-1 -101h-335v-202h303l-1 -98h-302v-209z" glyph-name="Eacute" horiz-adv-x="579" unicode="É"/><glyph d="M297 876l-54 -98h-92l85 167h98h23l86 -167h-93zM185 100h336l-1 -100h-430h-6v710h101h336l-1 -101h-335v-202h303l-1 -98h-302v-209z" glyph-name="Ecircumflex" horiz-adv-x="579" unicode="Ê"/><glyph d="M197 788q-31 0 -52 21t-21 50q0 30 21 51t52 21q29 0 50 -21.5t21 -50.5t-21 -50t-50 -21zM399 788q-30 0 -51.5 21t-21.5 50q0 30 21.5 51t51.5 21q29 0 50.5 -21.5t21.5 -50.5t-21.5 -50t-50.5 -21zM185 100h336l-1 -100h-430h-6v710h101h336l-1 -101h-335v-202h303 l-1 -98h-302v-209z" glyph-name="Edieresis" horiz-adv-x="579" unicode="Ë"/><glyph d="M81 779l-91 167h111l86 -167h-106zM185 0h-101v710h101v-710z" glyph-name="Igrave" horiz-adv-x="269" unicode="Ì"/><glyph d="M190 779h-109l86 167h115zM185 0h-101v710h101v-710z" glyph-name="Iacute" horiz-adv-x="269" unicode="Í"/><glyph d="M194 946l86 -167h-93l-53 98l-54 -98h-93l86 167h98h23zM84 0v710h101v-710h-101z" glyph-name="Icircumflex" horiz-adv-x="269" unicode="Î"/><glyph d="M34 789q-31 0 -52 21t-21 50q0 30 21 51t52 21q29 0 50 -21.5t21 -50.5t-21 -50t-50 -21zM236 789q-30 0 -51.5 21t-21.5 50q0 30 21.5 51t51.5 21q29 0 50.5 -21.5t21.5 -50.5t-21.5 -50t-50.5 -21zM185 0h-101v710h101v-710z" glyph-name="Idieresis" horiz-adv-x="269" unicode="Ï"/><glyph d="M732 355q0 -158 -101.5 -256.5t-262.5 -98.5h-164h-62v305h-84v101h84v305h101h125q160 0 262 -99.5t102 -256.5zM368 93q118 0 186 70.5t68 191.5q0 119 -69 191t-185 72h-125v-212h101v-101h-101v-212h125z" glyph-name="Eth" horiz-adv-x="789" unicode="Ð"/><glyph d="M272 836h-77q-5 50 25.5 86.5t76.5 36.5q67 0 103 -63q26 -37 47 -37q16 0 22.5 15t-1.5 37h81q6 -53 -24.5 -92t-77.5 -39q-68 0 -107 67q-13 20 -21 26.5t-22 6.5q-13 0 -20.5 -13t-4.5 -31zM646 710v-710h-100l-362 535v-535h-100v710h100l362 -535v535h100z" glyph-name="Ntilde" horiz-adv-x="730" unicode="Ñ"/><glyph d="M337 779l-91 167h111l86 -167h-106zM741 354q0 160 -99.5 265t-251.5 105q-150 0 -249 -105.5t-99 -264.5q0 -157 100.5 -262t248.5 -105q152 0 251 103t99 264zM630 354q0 -118 -65.5 -189t-173.5 -71q-104 0 -171 72.5t-67 187.5q0 117 66 190.5t171 73.5 q108 0 174 -73t66 -191z" glyph-name="Ograve" horiz-adv-x="783" unicode="Ò"/><glyph d="M446 779h-109l86 167h115zM741 354q0 160 -99.5 265t-251.5 105q-150 0 -249 -105.5t-99 -264.5q0 -157 100.5 -262t248.5 -105q152 0 251 103t99 264zM630 354q0 -118 -65.5 -189t-173.5 -71q-104 0 -171 72.5t-67 187.5q0 117 66 190.5t171 73.5q108 0 174 -73t66 -191 z" glyph-name="Oacute" horiz-adv-x="783" unicode="Ó"/><glyph d="M390 877l-54 -98h-92l85 167h98h23l86 -167h-93zM390 724q152 0 251.5 -105t99.5 -265q0 -161 -99 -264t-251 -103q-148 0 -248.5 105t-100.5 262q0 159 99 264.5t249 105.5zM391 94q108 0 173.5 71t65.5 189t-66 191t-174 73q-105 0 -171 -73.5t-66 -190.5 q0 -115 67 -187.5t171 -72.5z" glyph-name="Ocircumflex" horiz-adv-x="783" unicode="Ô"/><glyph d="M216 836q-5 50 25.5 86.5t76.5 36.5q67 0 103 -63q26 -37 47 -37q16 0 22.5 15t-1.5 37h81q6 -53 -24.5 -92t-77.5 -39q-68 0 -107 67q-13 20 -21 26.5t-22 6.5q-13 0 -20.5 -13t-4.5 -31h-77zM741 354q0 160 -99.5 265t-251.5 105q-150 0 -249 -105.5t-99 -264.5 q0 -157 100.5 -262t248.5 -105q152 0 251 103t99 264zM630 354q0 -118 -65.5 -189t-173.5 -71q-104 0 -171 72.5t-67 187.5q0 117 66 190.5t171 73.5q108 0 174 -73t66 -191z" glyph-name="Otilde" horiz-adv-x="783" unicode="Õ"/><glyph d="M290 789q-31 0 -52 21t-21 50q0 30 21 51t52 21q29 0 50 -21.5t21 -50.5t-21 -50t-50 -21zM492 789q-30 0 -51.5 21t-21.5 50q0 30 21.5 51t51.5 21q29 0 50.5 -21.5t21.5 -50.5t-21.5 -50t-50.5 -21zM741 354q0 160 -99.5 265t-251.5 105q-150 0 -249 -105.5t-99 -264.5 q0 -157 100.5 -262t248.5 -105q152 0 251 103t99 264zM630 354q0 -118 -65.5 -189t-173.5 -71q-104 0 -171 72.5t-67 187.5q0 117 66 190.5t171 73.5q108 0 174 -73t66 -191z" glyph-name="Odieresis" horiz-adv-x="783" unicode="Ö"/><glyph d="M745 645l-283 -289l283 -290l-68 -66l-281 288l-281 -288l-68 66l283 290l-283 289l68 67l281 -288l281 288z" glyph-name="multiply" horiz-adv-x="792" unicode="×"/><glyph d="M643 633q114 -108 114 -279q0 -161 -99 -266t-251 -105q-77 0 -144 31l-10 -16h-127l48 76q-116 110 -116 280q0 159 99 264.5t249 105.5q81 0 153 -33l11 18h119zM169 353q0 -111 63 -185l270 431q-46 19 -96 19q-105 0 -171 -74t-66 -191zM407 89q108 0 173.5 73 t65.5 191q0 114 -61 186l-266 -433q42 -17 88 -17z" glyph-name="Oslash" horiz-adv-x="814" unicode="Ø"/><glyph d="M404 779h-106l-91 167h111zM524 710h102v-460q0 -116 -82 -190.5t-193 -74.5t-193 74.5t-82 190.5v460h102v-460q0 -71 53.5 -117.5t119.5 -46.5t119.5 46.5t53.5 117.5v460z" glyph-name="Ugrave" horiz-adv-x="702" unicode="Ù"/><glyph d="M499 946l-92 -167h-109l86 167h115zM524 710h102v-460q0 -116 -82 -190.5t-193 -74.5t-193 74.5t-82 190.5v460h102v-460q0 -71 53.5 -117.5t119.5 -46.5t119.5 46.5t53.5 117.5v460z" glyph-name="Uacute" horiz-adv-x="702" unicode="Ú"/><glyph d="M351 877l-54 -98h-92l85 167h98h23l86 -167h-93zM524 710h102v-460q0 -116 -82 -190.5t-193 -74.5t-193 74.5t-82 190.5v460h102v-460q0 -71 53.5 -117.5t119.5 -46.5t119.5 46.5t53.5 117.5v460z" glyph-name="Ucircumflex" horiz-adv-x="702" unicode="Û"/><glyph d="M251 789q-31 0 -52 21t-21 50q0 30 21 51t52 21q29 0 50 -21.5t21 -50.5t-21 -50t-50 -21zM453 789q-30 0 -51.5 21t-21.5 50q0 30 21.5 51t51.5 21q29 0 50.5 -21.5t21.5 -50.5t-21.5 -50t-50.5 -21zM524 710h102v-460q0 -116 -82 -190.5t-193 -74.5t-193 74.5 t-82 190.5v460h102v-460q0 -71 53.5 -117.5t119.5 -46.5t119.5 46.5t53.5 117.5v460z" glyph-name="Udieresis" horiz-adv-x="702" unicode="Ü"/><glyph d="M453 945l-92 -167h-109l86 167h115zM600 710l-245 -416v-294h-100v292l-245 418h119l175 -320v1l177 319h119z" glyph-name="Yacute" horiz-adv-x="610" unicode="Ý"/><glyph d="M58 0v710h101v-143h144q75 0 130 -31.5t80 -78.5t25 -101.5t-24.5 -101.5t-80 -78.5t-130.5 -31.5h-144v-144h-101zM159 241h139q50 0 84.5 23.5t42 57.5t-0.5 67.5t-42 57t-84 23.5h-139v-229z" glyph-name="Thorn" horiz-adv-x="597" unicode="Þ"/><glyph d="M369 410q48 -28 76.5 -75.5t28.5 -105.5q0 -95 -61.5 -162t-162.5 -67h-54v98h54q55 1 93 38t38 93t-39.5 92.5t-97.5 36.5v85q44 0 69 32t23 70q-2 40 -29.5 64t-65.5 24q-39 0 -66.5 -26.5t-27.5 -68.5v-538h-100v543q0 74 58 128.5t133 54.5q79 0 133.5 -53t54.5 -130 q0 -79 -57 -133z" glyph-name="germandbls" horiz-adv-x="521" unicode="ß"/><glyph d="M322 565h-106l-91 167h111zM267 495q83 1 139 -47.5t56 -132.5v-319h-99v49q-55 -58 -135 -58t-131 42.5t-52 111.5q-3 85 68 132q41 28 134 28h83q35 0 32 32q-8 70 -96 72q-91 3 -134 -71l-76 42q68 119 211 119zM226 73q59 -2 96 30t41 93v28q-34 -2 -115 -2 q-54 0 -83.5 -21.5t-27.5 -59.5q1 -33 26.5 -50t62.5 -18z" glyph-name="agrave" horiz-adv-x="520" unicode="à"/><glyph d="M417 732l-92 -167h-109l86 167h115zM267 495q83 1 139 -47.5t56 -132.5v-319h-99v49q-55 -58 -135 -58t-131 42.5t-52 111.5q-3 85 68 132q41 28 134 28h83q35 0 32 32q-8 70 -96 72q-91 3 -134 -71l-76 42q68 119 211 119zM226 73q59 -2 96 30t41 93v28q-34 -2 -115 -2 q-54 0 -83.5 -21.5t-27.5 -59.5q1 -33 26.5 -50t62.5 -18z" glyph-name="aacute" horiz-adv-x="520" unicode="á"/><glyph d="M269 663l-54 -98h-92l85 167h98h23l86 -167h-93zM267 495q83 1 139 -47.5t56 -132.5v-319h-99v49q-55 -58 -135 -58t-131 42.5t-52 111.5q-3 85 68 132q41 28 134 28h83q35 0 32 32q-8 70 -96 72q-91 3 -134 -71l-76 42q68 119 211 119zM226 73q59 -2 96 30t41 93v28 q-34 -2 -115 -2q-54 0 -83.5 -21.5t-27.5 -59.5q1 -33 26.5 -50t62.5 -18z" glyph-name="acircumflex" horiz-adv-x="520" unicode="â"/><glyph d="M172 622h-77q-5 50 25.5 86.5t76.5 36.5q67 0 103 -63q26 -37 47 -37q16 0 22.5 15t-1.5 37h81q6 -53 -24.5 -92t-77.5 -39q-68 0 -107 67q-13 20 -21 26.5t-22 6.5q-13 0 -20.5 -13t-4.5 -31zM267 495q83 1 139 -47.5t56 -132.5v-319h-99v49q-55 -58 -135 -58t-131 42.5 t-52 111.5q-3 85 68 132q41 28 134 28h83q35 0 32 32q-8 70 -96 72q-91 3 -134 -71l-76 42q68 119 211 119zM226 73q59 -2 96 30t41 93v28q-34 -2 -115 -2q-54 0 -83.5 -21.5t-27.5 -59.5q1 -33 26.5 -50t62.5 -18z" glyph-name="atilde" horiz-adv-x="520" unicode="ã"/><glyph d="M169 575q-31 0 -52 21t-21 50q0 30 21 51t52 21q29 0 50 -21.5t21 -50.5t-21 -50t-50 -21zM371 575q-30 0 -51.5 21t-21.5 50q0 30 21.5 51t51.5 21q29 0 50.5 -21.5t21.5 -50.5t-21.5 -50t-50.5 -21zM267 495q83 1 139 -47.5t56 -132.5v-319h-99v49q-55 -58 -135 -58 t-131 42.5t-52 111.5q-3 85 68 132q41 28 134 28h83q35 0 32 32q-8 70 -96 72q-91 3 -134 -71l-76 42q68 119 211 119zM226 73q59 -2 96 30t41 93v28q-34 -2 -115 -2q-54 0 -83.5 -21.5t-27.5 -59.5q1 -33 26.5 -50t62.5 -18z" glyph-name="adieresis" horiz-adv-x="520" unicode="ä"/><glyph d="M270 544q-53 0 -88.5 36t-35.5 89q0 51 36.5 88.5t87.5 37.5t87.5 -37.5t36.5 -88.5q0 -52 -36.5 -88.5t-87.5 -36.5zM270 726q-24 0 -40 -16t-16 -39q0 -25 16 -41.5t40 -16.5t40 16.5t16 41.5q0 23 -16 39t-40 16zM267 495q83 1 139 -47.5t56 -132.5v-319h-99v49 q-55 -58 -135 -58t-131 42.5t-52 111.5q-3 85 68 132q41 28 134 28h83q35 0 32 32q-8 70 -96 72q-91 3 -134 -71l-76 42q68 119 211 119zM226 73q59 -2 96 30t41 93v28q-34 -2 -115 -2q-54 0 -83.5 -21.5t-27.5 -59.5q1 -33 26.5 -50t62.5 -18z" glyph-name="aring" horiz-adv-x="520" unicode="å"/><glyph d="M817 358q22 -55 21 -145h-383q10 -59 49.5 -93.5t94.5 -34.5q45 0 79 20t49 54l87 -34q-25 -62 -83.5 -98.5t-131.5 -36.5q-80 0 -146 53v-44h-101v35q-51 -48 -130 -48q-74 0 -127.5 41.5t-54.5 105.5q-2 82 66 128q43 28 158 30h52q23 0 30 10.5t5 33.5q-5 35 -35 53 t-71 16q-86 -5 -120 -73l-77 39q68 127 210 127q111 0 165 -80q72 82 176 82q74 0 132 -38t86 -103zM459 289h283q-8 52 -47 83.5t-95 31.5q-50 0 -89 -32t-52 -83zM220 74q58 -1 93 34.5t39 99.5v6q-35 -2 -121 -2q-106 0 -99 -74q3 -31 28 -47.5t60 -16.5z" glyph-name="ae" horiz-adv-x="879" unicode="æ"/><glyph d="M283 76q48 0 80.5 22.5t45.5 54.5l87 -34q-22 -55 -72 -90t-115 -41l-15 -19h32q31 0 48.5 -22.5t16.5 -50.5q-1 -27 -19 -48t-44 -21h-103v52h87q21 0 21 21q0 17 -21 17h-87v53l16 21q-88 15 -146.5 84.5t-58.5 162.5q0 105 72.5 180t174.5 75q77 0 137.5 -40.5 t83.5 -107.5l-89 -32q-33 89 -132 89q-66 0 -106.5 -47t-40.5 -117q0 -69 40.5 -115.5t106.5 -46.5z" glyph-name="ccedilla" horiz-adv-x="533" unicode="ç"/><glyph d="M330 566h-106l-91 167h111zM517 239l-1 -39h-380q13 -51 52 -84t89 -33q45 0 79 20t48 53l88 -33q-25 -62 -83 -99t-132 -37q-99 0 -170 75t-71 180t71 179.5t170 74.5q75 0 134.5 -39.5t85.5 -106.5q9 -22 14 -49.5t5 -44.5zM134 277h286q-6 38 -30 67q-37 58 -113 58 q-51 0 -91.5 -35.5t-51.5 -89.5z" glyph-name="egrave" horiz-adv-x="553" unicode="è"/><glyph d="M426 733l-92 -167h-109l86 167h115zM517 239l-1 -39h-380q13 -51 52 -84t89 -33q45 0 79 20t48 53l88 -33q-25 -62 -83 -99t-132 -37q-99 0 -170 75t-71 180t71 179.5t170 74.5q75 0 134.5 -39.5t85.5 -106.5q9 -22 14 -49.5t5 -44.5zM134 277h286q-6 38 -30 67 q-37 58 -113 58q-51 0 -91.5 -35.5t-51.5 -89.5z" glyph-name="eacute" horiz-adv-x="553" unicode="é"/><glyph d="M278 664l-54 -98h-92l85 167h98h23l86 -167h-93zM517 239l-1 -39h-380q13 -51 52 -84t89 -33q45 0 79 20t48 53l88 -33q-25 -62 -83 -99t-132 -37q-99 0 -170 75t-71 180t71 179.5t170 74.5q75 0 134.5 -39.5t85.5 -106.5q9 -22 14 -49.5t5 -44.5zM134 277h286 q-6 38 -30 67q-37 58 -113 58q-51 0 -91.5 -35.5t-51.5 -89.5z" glyph-name="ecircumflex" horiz-adv-x="553" unicode="ê"/><glyph d="M176 557q-30 0 -51.5 21.5t-21.5 50.5q0 30 21.5 51t51.5 21q29 0 50 -21.5t21 -50.5t-21 -50.5t-50 -21.5zM378 557q-30 0 -51.5 21.5t-21.5 50.5q0 30 21.5 51t51.5 21q29 0 50.5 -21.5t21.5 -50.5t-21.5 -50.5t-50.5 -21.5zM517 239l-1 -39h-380q13 -51 52 -84t89 -33 q45 0 79 20t48 53l88 -33q-25 -62 -83 -99t-132 -37q-99 0 -170 75t-71 180t71 179.5t170 74.5q75 0 134.5 -39.5t85.5 -106.5q9 -22 14 -49.5t5 -44.5zM134 277h286q-6 38 -30 67q-37 58 -113 58q-51 0 -91.5 -35.5t-51.5 -89.5z" glyph-name="edieresis" horiz-adv-x="553" unicode="ë"/><glyph d="M67 577l-91 166h111l86 -166h-106zM74 491h100v-491h-100v491z" glyph-name="igrave" horiz-adv-x="221" unicode="ì"/><glyph d="M158 572h-109l86 167h115zM47 491h101v-491h-101v491z" glyph-name="iacute" horiz-adv-x="221" unicode="í"/><glyph d="M230 733l85 -166h-92l-54 98l-54 -98h-92l86 166h98h23zM120 0v491h101v-491h-101z" glyph-name="icircumflex" horiz-adv-x="340" unicode="î"/><glyph d="M71 565q-30 0 -51 21t-21 50q0 30 21 51t51 21q29 0 50.5 -21.5t21.5 -50.5t-21.5 -50t-50.5 -21zM273 565q-30 0 -51 21t-21 50q0 30 21 51t51 21q29 0 50.5 -21.5t21.5 -50.5t-21.5 -50t-50.5 -21zM126 486h100v-486h-100v486z" glyph-name="idieresis" horiz-adv-x="351" unicode="ï"/><glyph d="M424 665q80 -82 122.5 -191.5t38.5 -233.5q2 -105 -66.5 -186.5t-173.5 -94.5q-117 -14 -208.5 64t-95.5 198q-7 117 59 200t179 97q84 9 155 -28q-31 58 -81 112l-69 -61l-52 58l64 56q-39 32 -84 56q35 50 50 70q54 -25 104 -64l66 58l50 -59zM335 52q66 8 110.5 57.5 t46.5 120.5q-1 97 -58.5 150t-144.5 44q-70 -7 -114 -61.5t-42 -130.5h1q0 -82 60 -136t141 -44z" glyph-name="eth" horiz-adv-x="625" unicode="ð"/><glyph d="M211 623h-77q-5 50 25.5 86.5t76.5 36.5q67 0 103 -63q26 -37 47 -37q16 0 22.5 15t-1.5 37h81q6 -53 -24.5 -92t-77.5 -39q-68 0 -107 67q-13 20 -21 26.5t-22 6.5q-13 0 -20.5 -13t-4.5 -31zM328 496q43 0 79 -12.5t67 -38.5t49 -73.5t18 -113.5v-258h-99v253 q0 76 -32.5 113t-86.5 39q-60 3 -103.5 -37t-47.5 -113v-255h-98l1 480h97v-64q57 80 156 80z" glyph-name="ntilde" horiz-adv-x="607" unicode="ñ"/><glyph d="M230 565l-91 167h111l86 -167h-106zM521 240q0 -107 -69.5 -180t-172.5 -73q-100 0 -171.5 74.5t-71.5 178.5q0 106 70.5 180.5t172.5 74.5t172 -74t70 -181zM421 239q0 69 -39 114.5t-103 45.5q-65 0 -104 -46t-39 -114q0 -66 40 -112t103 -46q65 0 103.5 44.5 t38.5 113.5z" glyph-name="ograve" horiz-adv-x="557" unicode="ò"/><glyph d="M340 565h-109l86 167h115zM521 240q0 -107 -69.5 -180t-172.5 -73q-100 0 -171.5 74.5t-71.5 178.5q0 106 70.5 180.5t172.5 74.5t172 -74t70 -181zM421 239q0 69 -39 114.5t-103 45.5q-65 0 -104 -46t-39 -114q0 -66 40 -112t103 -46q65 0 103.5 44.5t38.5 113.5z" glyph-name="oacute" horiz-adv-x="557" unicode="ó"/><glyph d="M284 663l-54 -98h-92l85 167h98h23l86 -167h-93zM279 495q102 0 172 -74t70 -181t-69.5 -180t-172.5 -73q-100 0 -171.5 74.5t-71.5 178.5q0 106 70.5 180.5t172.5 74.5zM279 81q65 0 103.5 44.5t38.5 113.5t-39 114.5t-103 45.5q-65 0 -104 -46t-39 -114q0 -66 40 -112 t103 -46z" glyph-name="ocircumflex" horiz-adv-x="557" unicode="ô"/><glyph d="M109 622q-5 50 25.5 86.5t76.5 36.5q67 0 103 -63q26 -37 47 -37q16 0 22.5 15t-1.5 37h81q6 -53 -24.5 -92t-77.5 -39q-68 0 -107 67q-13 20 -21 26.5t-22 6.5q-13 0 -20.5 -13t-4.5 -31h-77zM521 240q0 -107 -69.5 -180t-172.5 -73q-100 0 -171.5 74.5t-71.5 178.5 q0 106 70.5 180.5t172.5 74.5t172 -74t70 -181zM421 239q0 69 -39 114.5t-103 45.5q-65 0 -104 -46t-39 -114q0 -66 40 -112t103 -46q65 0 103.5 44.5t38.5 113.5z" glyph-name="otilde" horiz-adv-x="557" unicode="õ"/><glyph d="M183 575q-31 0 -52 21t-21 50q0 30 21 51t52 21q29 0 50 -21.5t21 -50.5t-21 -50t-50 -21zM385 575q-30 0 -51.5 21t-21.5 50q0 30 21.5 51t51.5 21q29 0 50.5 -21.5t21.5 -50.5t-21.5 -50t-50.5 -21zM521 240q0 -107 -69.5 -180t-172.5 -73q-100 0 -171.5 74.5 t-71.5 178.5q0 106 70.5 180.5t172.5 74.5t172 -74t70 -181zM421 239q0 69 -39 114.5t-103 45.5q-65 0 -104 -46t-39 -114q0 -66 40 -112t103 -46q65 0 103.5 44.5t38.5 113.5z" glyph-name="odieresis" horiz-adv-x="557" unicode="ö"/><glyph d="M235 359q-28 0 -48 20t-20 47q0 28 20 48t48 20t48 -20t20 -48q0 -27 -20 -47t-48 -20zM47 285h376v-82h-376v82zM235 -13q-28 0 -48 20t-20 47q0 28 20 48t48 20t48 -20t20 -48q0 -27 -20 -47t-48 -20z" glyph-name="divide" horiz-adv-x="470" unicode="÷"/><glyph d="M523 238q0 -107 -69.5 -180t-172.5 -73q-54 0 -100 23l-6 -9h-95l35 55q-76 74 -76 184q0 106 70 181t172 75q53 0 103 -24l6 10h91l-34 -54q76 -76 76 -188zM138 237q0 -57 31 -100l162 252q-24 8 -50 8q-64 0 -103.5 -45.5t-39.5 -114.5zM281 80q65 0 103.5 44 t38.5 113q0 60 -30 104l-161 -253q24 -8 49 -8z" glyph-name="oslash" horiz-adv-x="561" unicode="ø"/><glyph d="M352 562h-106l-91 167h111zM429 480h99v-480h-99v58q-48 -71 -145 -71q-215 0 -215 238v255h99v-250q0 -76 35 -114.5t91 -38.5q63 0 99 44t36 132v227z" glyph-name="ugrave" horiz-adv-x="597" unicode="ù"/><glyph d="M447 729l-92 -167h-109l86 167h115zM429 480h99v-480h-99v58q-48 -71 -145 -71q-215 0 -215 238v255h99v-250q0 -76 35 -114.5t91 -38.5q63 0 99 44t36 132v227z" glyph-name="uacute" horiz-adv-x="597" unicode="ú"/><glyph d="M299 660l-54 -98h-92l85 167h98h23l86 -167h-93zM429 480h99v-480h-99v58q-48 -71 -145 -71q-215 0 -215 238v255h99v-250q0 -76 35 -114.5t91 -38.5q63 0 99 44t36 132v227z" glyph-name="ucircumflex" horiz-adv-x="597" unicode="û"/><glyph d="M199 572q-31 0 -52 21t-21 50q0 30 21 51t52 21q29 0 50 -21.5t21 -50.5t-21 -50t-50 -21zM401 572q-30 0 -51.5 21t-21.5 50q0 30 21.5 51t51.5 21q29 0 50.5 -21.5t21.5 -50.5t-21.5 -50t-50.5 -21zM429 480h99v-480h-99v58q-48 -71 -145 -71q-215 0 -215 238v255h99 v-250q0 -76 35 -114.5t91 -38.5q63 0 99 44t36 132v227z" glyph-name="udieresis" horiz-adv-x="597" unicode="ü"/><glyph d="M414 716l-92 -167h-109l86 167h115zM417 480h106l-283 -704h-106l91 227l-217 477h107l159 -356z" glyph-name="yacute" horiz-adv-x="533" unicode="ý"/><glyph d="M569 238v-3q-2 -120 -68 -194t-174 -74q-87 0 -147 69v-296h-106v970h106v-270q58 69 147 69q108 1 174 -73.5t68 -195.5v-2zM323 60q64 0 105.5 48.5t42.5 129.5q-1 81 -42.5 129.5t-105.5 48.5q-56 0 -97 -40.5t-46 -109.5v-54q5 -69 46.5 -110.5t96.5 -41.5z" glyph-name="thorn" horiz-adv-x="606" unicode="þ"/><glyph d="M166 559q-31 0 -52 21t-21 50q0 30 21 51t52 21q29 0 50 -21.5t21 -50.5t-21 -50t-50 -21zM368 559q-30 0 -51.5 21t-21.5 50q0 30 21.5 51t51.5 21q29 0 50.5 -21.5t21.5 -50.5t-21.5 -50t-50.5 -21zM417 480h106l-283 -704h-106l91 227l-217 477h107l159 -356z" glyph-name="ydieresis" horiz-adv-x="533" unicode="ÿ"/><glyph d="M508 901v-91h-304v91h304zM581 0l-73 186h-308l-72 -186h-118l287 710h108h7l287 -710h-118zM236 277h237l-119 303z" glyph-name="Amacron" horiz-adv-x="709" unicode="Ā"/><glyph d="M422 688v-91h-304v91h304zM267 495q83 1 139 -47.5t56 -132.5v-319h-99v49q-55 -58 -135 -58t-131 42.5t-52 111.5q-3 85 68 132q41 28 134 28h83q35 0 32 32q-8 70 -96 72q-91 3 -134 -71l-76 42q68 119 211 119zM226 73q59 -2 96 30t41 93v28q-34 -2 -115 -2 q-54 0 -83.5 -21.5t-27.5 -59.5q1 -33 26.5 -50t62.5 -18z" glyph-name="amacron" horiz-adv-x="520" unicode="ā"/><glyph d="M357 781q-69 0 -118.5 48.5t-52.5 117.5h90q1 -36 25 -57t56 -21q31 0 54.5 21.5t24.5 56.5h89q-3 -68 -52.5 -117t-115.5 -49zM581 0l-73 186h-308l-72 -186h-118l287 710h108h7l287 -710h-118zM236 277h237l-119 303z" glyph-name="Abreve" horiz-adv-x="709" unicode="Ă"/><glyph d="M270 567q-69 0 -118.5 48.5t-52.5 117.5h90q1 -36 25 -57t56 -21q31 0 54.5 21.5t24.5 56.5h89q-3 -68 -52.5 -117t-115.5 -49zM267 495q83 1 139 -47.5t56 -132.5v-319h-99v49q-55 -58 -135 -58t-131 42.5t-52 111.5q-3 85 68 132q41 28 134 28h83q35 0 32 32 q-8 70 -96 72q-91 3 -134 -71l-76 42q68 119 211 119zM226 73q59 -2 96 30t41 93v28q-34 -2 -115 -2q-54 0 -83.5 -21.5t-27.5 -59.5q1 -33 26.5 -50t62.5 -18z" glyph-name="abreve" horiz-adv-x="520" unicode="ă"/><glyph d="M677 0q-56 -5 -67 -45q-7 -28 13 -43q9 -7 20 -6v-70q-48 -9 -79 19t-27 71t44 74l-73 186h-308l-72 -186h-118l287 710h108h7l287 -710h-22zM236 277h237l-119 303z" glyph-name="Aogonek" horiz-adv-x="709" unicode="Ą"/><glyph d="M439 -4q-44 -13 -47 -50q-2 -29 19 -38q7 -3 15 -2v-70q-48 -9 -79 18.5t-27 70.5t43 74v46q-55 -58 -135 -58t-131 42.5t-52 111.5q-3 85 68 132q41 28 134 28h83q35 0 32 32q-8 70 -96 72q-91 3 -134 -71l-76 42q68 119 211 119q83 1 139 -47.5t56 -132.5v-319h-23z M226 73q59 -2 96 30t41 93v28q-34 -2 -115 -2q-54 0 -83.5 -21.5t-27.5 -59.5q1 -33 26.5 -50t62.5 -18z" glyph-name="aogonek" horiz-adv-x="520" unicode="ą"/><glyph d="M450 779h-106l86 167h111zM707 517l-102 -38q-23 61 -79 100.5t-130 39.5q-103 0 -173.5 -76t-70.5 -188q0 -111 70 -185.5t174 -74.5q72 0 130 36.5t86 94.5l101 -47q-40 -88 -125 -140t-192 -52q-146 0 -250 107.5t-104 260.5t104 261.5t250 108.5q68 0 125 -21.5 t93.5 -56t58.5 -66.5t34 -64z" glyph-name="Cacute" horiz-adv-x="752" unicode="Ć"/><glyph d="M336 566h-106l86 167h111zM504 345l-89 -32q-33 89 -132 89q-66 0 -106.5 -47t-40.5 -117q0 -69 40.5 -115.5t106.5 -46.5q48 0 80.5 22.5t45.5 54.5l87 -34q-25 -61 -82 -96.5t-131 -35.5q-102 0 -174.5 73t-72.5 178t72.5 180t174.5 75q77 0 137.5 -40.5t83.5 -107.5z " glyph-name="cacute" horiz-adv-x="533" unicode="ć"/><glyph d="M392 789q-29 0 -50 20.5t-21 50.5q0 29 21 50.5t50 21.5t50.5 -21.5t21.5 -50.5t-21.5 -50t-50.5 -21zM707 517l-102 -38q-23 61 -79 100.5t-130 39.5q-103 0 -173.5 -76t-70.5 -188q0 -111 70 -185.5t174 -74.5q72 0 130 36.5t86 94.5l101 -47q-40 -88 -125 -140 t-192 -52q-146 0 -250 107.5t-104 260.5t104 261.5t250 108.5q68 0 125 -21.5t93.5 -56t58.5 -66.5t34 -64z" glyph-name="Cdotaccent" horiz-adv-x="752" unicode="Ċ"/><glyph d="M278 576q-29 0 -50 20.5t-21 50.5q0 29 21 50.5t50 21.5t50.5 -21.5t21.5 -50.5t-21.5 -50t-50.5 -21zM504 345l-89 -32q-33 89 -132 89q-66 0 -106.5 -47t-40.5 -117q0 -69 40.5 -115.5t106.5 -46.5q48 0 80.5 22.5t45.5 54.5l87 -34q-25 -61 -82 -96.5t-131 -35.5 q-102 0 -174.5 73t-72.5 178t72.5 180t174.5 75q77 0 137.5 -40.5t83.5 -107.5z" glyph-name="cdotaccent" horiz-adv-x="533" unicode="ċ"/><glyph d="M336 779l-85 167h92l54 -98l53 98h93l-86 -167h-121zM612 226l101 -47q-40 -88 -125 -140t-192 -52q-146 0 -250 107.5t-104 260.5t104 261.5t250 108.5q68 0 125 -21.5t93.5 -56t58.5 -66.5t34 -64l-102 -38q-23 61 -79 100.5t-130 39.5q-103 0 -173.5 -76t-70.5 -188 q0 -111 70 -185.5t174 -74.5q72 0 130 36.5t86 94.5z" glyph-name="Ccaron" horiz-adv-x="752" unicode="Č"/><glyph d="M222 566l-85 167h92l54 -98l53 98h93l-86 -167h-121zM283 76q48 0 80.5 22.5t45.5 54.5l87 -34q-25 -61 -82 -96.5t-131 -35.5q-102 0 -174.5 73t-72.5 178t72.5 180t174.5 75q77 0 137.5 -40.5t83.5 -107.5l-89 -32q-33 89 -132 89q-66 0 -106.5 -47t-40.5 -117 q0 -69 40.5 -115.5t106.5 -46.5z" glyph-name="ccaron" horiz-adv-x="533" unicode="č"/><glyph d="M254 779l-85 167h92l54 -98l53 98h93l-86 -167h-121zM320 711q159 0 261 -99.5t102 -256.5q0 -158 -101 -256.5t-262 -98.5h-173h-63v711h101h135zM320 93q117 0 185 71t68 191q0 119 -68.5 191t-184.5 72h-135v-525h135z" glyph-name="Dcaron" horiz-adv-x="724" unicode="Ď"/><glyph d="M437 430v280h102v-710h-102v61q-64 -77 -167 -75q-98 1 -164 73.5t-61 191.5q6 116 72 179t155 67q100 3 165 -67zM603 710h91v-304h-91v304zM287 72q61 0 103.5 44.5t43.5 119.5q1 82 -41.5 127.5t-103.5 44.5q-58 -2 -100 -44t-46 -119h-1q-1 -78 41 -125.5t104 -47.5z " glyph-name="dcaron" horiz-adv-x="741" unicode="ď"/><glyph d="M732 355q0 -158 -101.5 -256.5t-262.5 -98.5h-164h-62v305h-84v101h84v305h101h125q160 0 262 -99.5t102 -256.5zM368 93q118 0 186 70.5t68 191.5q0 119 -69 191t-185 72h-125v-212h101v-101h-101v-212h125z" glyph-name="Dcroat" horiz-adv-x="789" unicode="Đ"/><glyph d="M611 663v-90h-80v-573h-102v60q-65 -79 -167 -77q-97 0 -163.5 74t-62.5 194h1q6 116 72 179t155 67q100 3 165 -67v143h-173v90h173v47h102v-47h80zM279 72q61 0 103.5 44.5t43.5 119.5q1 82 -41.5 127.5t-103.5 44.5q-58 -2 -100 -44t-46 -119h-1q-1 -78 41 -125.5 t104 -47.5z" glyph-name="dcroat" horiz-adv-x="602" unicode="đ"/><glyph d="M450 901v-91h-304v91h304zM185 100h336l-1 -100h-430h-6v710h101h336l-1 -101h-335v-202h303l-1 -98h-302v-209z" glyph-name="Emacron" horiz-adv-x="579" unicode="Ē"/><glyph d="M430 688v-91h-304v91h304zM517 239l-1 -39h-380q13 -51 52 -84t89 -33q45 0 79 20t48 53l88 -33q-25 -62 -83 -99t-132 -37q-99 0 -170 75t-71 180t71 179.5t170 74.5q75 0 134.5 -39.5t85.5 -106.5q9 -22 14 -49.5t5 -44.5zM134 277h286q-6 38 -30 67q-37 58 -113 58 q-51 0 -91.5 -35.5t-51.5 -89.5z" glyph-name="emacron" horiz-adv-x="553" unicode="ē"/><glyph d="M293 788q-29 0 -50 20.5t-21 50.5q0 29 21 50.5t50 21.5t50.5 -21.5t21.5 -50.5t-21.5 -50t-50.5 -21zM185 100h336l-1 -100h-430h-6v710h101h336l-1 -101h-335v-202h303l-1 -98h-302v-209z" glyph-name="Edotaccent" horiz-adv-x="579" unicode="Ė"/><glyph d="M273 576q-29 0 -50 20.5t-21 50.5q0 29 21 50.5t50 21.5t50.5 -21.5t21.5 -50.5t-21.5 -50t-50.5 -21zM517 239l-1 -39h-380q13 -51 52 -84t89 -33q45 0 79 20t48 53l88 -33q-25 -62 -83 -99t-132 -37q-99 0 -170 75t-71 180t71 179.5t170 74.5q75 0 134.5 -39.5 t85.5 -106.5q9 -22 14 -49.5t5 -44.5zM134 277h286q-6 38 -30 67q-37 58 -113 58q-51 0 -91.5 -35.5t-51.5 -89.5z" glyph-name="edotaccent" horiz-adv-x="553" unicode="ė"/><glyph d="M342 0q-47 -10 -54 -47q-6 -29 15 -41q8 -5 18 -4v-70q-48 -9 -78.5 18.5t-27 70t41.5 73.5h-167h-6v710h101h336l-1 -101h-335v-202h303l-1 -98h-302v-209h336l-1 -100h-178z" glyph-name="Eogonek" horiz-adv-x="579" unicode="Ę"/><glyph d="M517 239l-1 -39h-380q13 -51 52 -84t89 -33q45 0 79 20t48 53l88 -33q-22 -55 -71 -90.5t-112 -43.5q-44 -12 -47 -50q-2 -29 20 -38q6 -3 14 -2v-70q-48 -9 -78.5 18.5t-27 70.5t41.5 74q-84 17 -140 87.5t-56 162.5q0 105 71 179.5t170 74.5q75 0 134.5 -39.5 t85.5 -106.5q9 -22 14 -49.5t5 -44.5zM134 277h286q-6 38 -30 67q-37 58 -113 58q-51 0 -91.5 -35.5t-51.5 -89.5z" glyph-name="eogonek" horiz-adv-x="553" unicode="ę"/><glyph d="M236 778l-85 167h92l54 -98l53 98h93l-86 -167h-121zM185 100h336l-1 -100h-430h-6v710h101h336l-1 -101h-335v-202h303l-1 -98h-302v-209z" glyph-name="Ecaron" horiz-adv-x="579" unicode="Ě"/><glyph d="M217 566l-85 167h92l54 -98l53 98h93l-86 -167h-121zM517 239l-1 -39h-380q13 -51 52 -84t89 -33q45 0 79 20t48 53l88 -33q-25 -62 -83 -99t-132 -37q-99 0 -170 75t-71 180t71 179.5t170 74.5q75 0 134.5 -39.5t85.5 -106.5q9 -22 14 -49.5t5 -44.5zM134 277h286 q-6 38 -30 67q-37 58 -113 58q-51 0 -91.5 -35.5t-51.5 -89.5z" glyph-name="ecaron" horiz-adv-x="553" unicode="ě"/><glyph d="M398 781q-68 0 -117.5 48.5t-53.5 117.5h90q1 -36 25 -57t56 -21t55 21.5t24 56.5h90q-3 -68 -52.5 -117t-116.5 -49zM383 307v95h339v-402h-101v77q-79 -90 -218 -90q-164 0 -263 103.5t-99 261.5q0 155 104 264t253 109q117 0 204.5 -57t126.5 -155l-102 -36 q-30 69 -90.5 107.5t-138.5 38.5q-105 0 -176 -78t-71 -193q0 -114 70.5 -186.5t181.5 -72.5q35 0 68.5 9.5t66.5 30.5t55.5 63t27.5 100v11h-238z" glyph-name="Gbreve" horiz-adv-x="784" unicode="Ğ"/><glyph d="M288 569q-68 0 -117.5 48.5t-53.5 117.5h90q1 -36 25 -57t56 -21t55 21.5t24 56.5h90q-3 -68 -52.5 -117t-116.5 -49zM426 481h102v-466q0 -97 -54 -167q-69 -88 -187 -88q-112 0 -182 67q-39 38 -59 95l88 32q11 -37 38 -59q45 -41 112 -39q80 3 115 59q27 40 27 100v55 q-57 -69 -150 -69q-104 -1 -170 65.5t-67 181.5q1 115 65.5 182.5t171.5 66.5q93 -2 150 -69v53zM286 91q59 0 98.5 43.5t40.5 115.5v1v1v1q-1 72 -42 112.5t-97 40.5q-65 0 -106.5 -43.5t-41.5 -114.5t41.5 -114t106.5 -43z" glyph-name="gbreve" horiz-adv-x="594" unicode="ğ"/><glyph d="M393 789q-29 0 -50 20.5t-21 50.5q0 29 21 50.5t50 21.5t50.5 -21.5t21.5 -50.5t-21.5 -50t-50.5 -21zM383 307v95h339v-402h-101v77q-79 -90 -218 -90q-164 0 -263 103.5t-99 261.5q0 155 104 264t253 109q117 0 204.5 -57t126.5 -155l-102 -36q-30 69 -90.5 107.5 t-138.5 38.5q-105 0 -176 -78t-71 -193q0 -114 70.5 -186.5t181.5 -72.5q35 0 68.5 9.5t66.5 30.5t55.5 63t27.5 100v11h-238z" glyph-name="Gdotaccent" horiz-adv-x="784" unicode="Ġ"/><glyph d="M283 577q-29 0 -50 20.5t-21 50.5q0 29 21 50.5t50 21.5t50.5 -21.5t21.5 -50.5t-21.5 -50t-50.5 -21zM426 481h102v-466q0 -97 -54 -167q-69 -88 -187 -88q-112 0 -182 67q-39 38 -59 95l88 32q11 -37 38 -59q45 -41 112 -39q80 3 115 59q27 40 27 100v55 q-57 -69 -150 -69q-104 -1 -170 65.5t-67 181.5q1 115 65.5 182.5t171.5 66.5q93 -2 150 -69v53zM286 91q59 0 98.5 43.5t40.5 115.5v1v1v1q-1 72 -42 112.5t-97 40.5q-65 0 -106.5 -43.5t-41.5 -114.5t41.5 -114t106.5 -43z" glyph-name="gdotaccent" horiz-adv-x="594" unicode="ġ"/><glyph d="M383 307v95h339v-402h-101v77q-79 -90 -218 -90q-164 0 -263 103.5t-99 261.5q0 155 104 264t253 109q117 0 204.5 -57t126.5 -155l-102 -36q-30 69 -90.5 107.5t-138.5 38.5q-105 0 -176 -78t-71 -193q0 -114 70.5 -186.5t181.5 -72.5q35 0 68.5 9.5t66.5 30.5t55.5 63 t27.5 100v11h-238zM275 -249l91 167h93l-86 -167h-98z" glyph-name="Gcommaaccent" horiz-adv-x="784" unicode="Ģ"/><glyph d="M436 734l-92 -167h-109l86 167h115zM426 481h102v-466q0 -97 -54 -167q-69 -88 -187 -88q-112 0 -182 67q-39 38 -59 95l88 32q11 -37 38 -59q45 -41 112 -39q80 3 115 59q27 40 27 100v55q-57 -69 -150 -69q-104 -1 -170 65.5t-67 181.5q1 115 65.5 182.5t171.5 66.5 q93 -2 150 -69v53zM286 91q59 0 98.5 43.5t40.5 115.5v1v1v1q-1 72 -42 112.5t-97 40.5q-65 0 -106.5 -43.5t-41.5 -114.5t41.5 -114t106.5 -43z" glyph-name="gcommaaccent" horiz-adv-x="594" unicode="ģ"/><glyph d="M707 650v-101h-83v-549h-100v310l-339 1v-311h-101v549h-83v101h83v60h101v-60h339v60h100v-60h83zM524 408v141h-339v-140z" glyph-name="Hbar" horiz-adv-x="708" unicode="Ħ"/><glyph d="M322 508q47 0 86 -13t71.5 -41t51 -78.5t18.5 -119.5v-256h-102v252q0 77 -35.5 115t-89.5 38q-57 0 -99 -41t-47 -118l-1 -246h-101v573h-76v90h76v47h102v-47h177v-90h-177v-135q54 70 146 70z" glyph-name="hbar" horiz-adv-x="615" unicode="ħ"/><glyph d="M-18 901h305v-91h-305v91zM185 0h-101v710h101v-710z" glyph-name="Imacron" horiz-adv-x="269" unicode="Ī"/><glyph d="M56 688h304v-91h-304v91zM158 480h101v-480h-101v480z" glyph-name="imacron" horiz-adv-x="417" unicode="ī"/><glyph d="M84 710h101v-710h-5q-56 -5 -67 -45q-7 -28 13 -43q8 -7 20 -6v-70q-48 -9 -79 19t-27 71t44 74v710z" glyph-name="Iogonek" horiz-adv-x="269" unicode="Į"/><glyph d="M129 720q28 0 49 -21.5t21 -50.5t-21 -50.5t-49 -21.5q-30 0 -51.5 21.5t-21.5 50.5t21.5 50.5t51.5 21.5zM75 0v480h101v-480h-5q-56 -5 -67 -45q-7 -28 13 -43q9 -7 20 -6v-70q-48 -9 -79 19t-27 71t44 74z" glyph-name="iogonek" horiz-adv-x="255" unicode="į"/><glyph d="M130 789q-29 0 -50 20.5t-21 50.5q0 29 21 50.5t50 21.5t50.5 -21.5t21.5 -50.5t-21.5 -50t-50.5 -21zM185 0h-101v710h101v-710z" glyph-name="Idotaccent" horiz-adv-x="269" unicode="İ"/><glyph d="M57 480h100v-480h-100v480z" glyph-name="dotlessi" horiz-adv-x="214" unicode="ı"/><glyph d="M618 710l-287 -358l284 -352h-136l-215 269l-79 -99v-171h-101v711h101v-376l297 376h136zM-5 -236l91 167h92l-85 -167h-98z" glyph-name="Kcommaaccent" horiz-adv-x="634" unicode="Ķ"/><glyph d="M368 0l-152 208l-41 -43v-165h-101v710h101v-416l181 186h124l-200 -207l200 -273h-112zM-14 -236l91 167h92l-85 -167h-98z" glyph-name="kcommaaccent" horiz-adv-x="488" unicode="ķ"/><glyph d="M344 942l-91 -167h-106l86 167h111zM185 101h309v-101h-396h-14v710h101v-609z" glyph-name="Lacute" horiz-adv-x="521" unicode="Ĺ"/><glyph d="M181 779h-109l86 167h115zM274 0l-98 1q-102 0 -102 123v586h101l1 -571q0 -28 11 -37t33 -9l54 -1v-92z" glyph-name="lacute" horiz-adv-x="315" unicode="ĺ"/><glyph d="M185 101h309v-101h-396h-14v710h101v-609zM165 -236l91 167h93l-86 -167h-98z" glyph-name="Lcommaaccent" horiz-adv-x="521" unicode="Ļ"/><glyph d="M274 0l-98 1q-102 0 -102 123v586h101l1 -571q0 -28 11 -37t33 -9l54 -1v-92zM146 -77h93l-86 -167h-98z" glyph-name="lcommaaccent" horiz-adv-x="315" unicode="ļ"/><glyph d="M185 101h309v-101h-396h-14v710h101v-609zM403 710v-304h-91v304h91z" glyph-name="Lcaron" horiz-adv-x="524" unicode="Ľ"/><glyph d="M274 0l-98 1q-102 0 -102 123v586h101l1 -571q0 -28 11 -37t33 -9l54 -1v-92zM333 710v-304h-92v304h92z" glyph-name="lcaron" horiz-adv-x="374" unicode="ľ"/><glyph d="M185 101h309v-101h-396h-14v322l-68 -32v98l68 32v290h101v-242l168 81v-98l-168 -81v-269z" glyph-name="Lslash" horiz-adv-x="524" unicode="Ł"/><glyph d="M222 93l53 -1v-92l-98 1q-101 0 -101 123v207l-59 -27v84l59 28v294h101v-246l67 32v-84l-67 -32v-241q0 -28 11 -37t34 -9z" glyph-name="lslash" horiz-adv-x="320" unicode="ł"/><glyph d="M514 946l-91 -167h-106l86 167h111zM646 710v-710h-100l-362 535v-535h-100v710h100l362 -535v535h100z" glyph-name="Nacute" horiz-adv-x="730" unicode="Ń"/><glyph d="M452 733l-91 -167h-106l86 167h111zM328 496q43 0 79 -12.5t67 -38.5t49 -73.5t18 -113.5v-258h-99v253q0 76 -32.5 113t-86.5 39q-60 3 -103.5 -37t-47.5 -113v-255h-98l1 480h97v-64q57 80 156 80z" glyph-name="nacute" horiz-adv-x="607" unicode="ń"/><glyph d="M646 710v-710h-100l-362 535v-535h-100v710h100l362 -535v535h100zM232 -236l91 167h93l-86 -167h-98z" glyph-name="Ncommaaccent" horiz-adv-x="730" unicode="Ņ"/><glyph d="M328 496q43 0 79 -12.5t67 -38.5t49 -73.5t18 -113.5v-258h-99v253q0 76 -32.5 113t-86.5 39q-60 3 -103.5 -37t-47.5 -113v-255h-98l1 480h97v-64q57 80 156 80zM179 -236l91 167h92l-85 -167h-98z" glyph-name="ncommaaccent" horiz-adv-x="607" unicode="ņ"/><glyph d="M309 779l-85 167h92l54 -98l53 98h93l-86 -167h-121zM646 710v-710h-100l-362 535v-535h-100v710h100l362 -535v535h100z" glyph-name="Ncaron" horiz-adv-x="730" unicode="Ň"/><glyph d="M247 566l-85 167h92l54 -98l53 98h93l-86 -167h-121zM328 496q43 0 79 -12.5t67 -38.5t49 -73.5t18 -113.5v-258h-99v253q0 76 -32.5 113t-86.5 39q-60 3 -103.5 -37t-47.5 -113v-255h-98l1 480h97v-64q57 80 156 80z" glyph-name="ncaron" horiz-adv-x="607" unicode="ň"/><glyph d="M636 710v-710v-39q0 -51 -20.5 -85.5t-50 -46.5t-62.5 -15t-59 9v65q35 -12 63.5 4.5t28.5 69.5v38l-352 535v-535h-100v710h100l352 -535v535h100z" glyph-name="Eng" horiz-adv-x="720" unicode="Ŋ"/><glyph d="M328 496q43 0 79 -12.5t67 -38.5t49 -73.5t18 -113.5v-297q0 -51 -20.5 -85.5t-50.5 -46.5t-63 -15t-59 9v65q35 -12 64.5 4.5t29.5 69.5v291q0 76 -32.5 113t-86.5 39q-60 3 -103.5 -37t-47.5 -113v-255h-98l1 480h97v-64q57 80 156 80z" glyph-name="eng" horiz-adv-x="607" unicode="ŋ"/><glyph d="M239 901h304v-91h-304v91zM741 354q0 160 -99.5 265t-251.5 105q-150 0 -249 -105.5t-99 -264.5q0 -157 100.5 -262t248.5 -105q152 0 251 103t99 264zM630 354q0 -118 -65.5 -189t-173.5 -71q-104 0 -171 72.5t-67 187.5q0 117 66 190.5t171 73.5q108 0 174 -73t66 -191 z" glyph-name="Omacron" horiz-adv-x="783" unicode="Ō"/><glyph d="M132 688h304v-91h-304v91zM521 240q0 -107 -69.5 -180t-172.5 -73q-100 0 -171.5 74.5t-71.5 178.5q0 106 70.5 180.5t172.5 74.5t172 -74t70 -181zM421 239q0 69 -39 114.5t-103 45.5q-65 0 -104 -46t-39 -114q0 -66 40 -112t103 -46q65 0 103.5 44.5t38.5 113.5z" glyph-name="omacron" horiz-adv-x="557" unicode="ō"/><glyph d="M357 794h-105l85 166h111zM537 794h-105l92 166h111zM741 354q0 160 -99.5 265t-251.5 105q-150 0 -249 -105.5t-99 -264.5q0 -157 100.5 -262t248.5 -105q152 0 251 103t99 264zM630 354q0 -118 -65.5 -189t-173.5 -71q-104 0 -171 72.5t-67 187.5q0 117 66 190.5 t171 73.5q108 0 174 -73t66 -191z" glyph-name="Ohungarumlaut" horiz-adv-x="783" unicode="Ő"/><glyph d="M254 564h-105l85 167h111zM434 564h-105l92 167h111zM521 240q0 -107 -69.5 -180t-172.5 -73q-100 0 -171.5 74.5t-71.5 178.5q0 106 70.5 180.5t172.5 74.5t172 -74t70 -181zM421 239q0 69 -39 114.5t-103 45.5q-65 0 -104 -46t-39 -114q0 -66 40 -112t103 -46 q65 0 103.5 44.5t38.5 113.5z" glyph-name="ohungarumlaut" horiz-adv-x="557" unicode="ő"/><glyph d="M1093 100l-1 -100l-335 1v-1h-101v86q-98 -103 -249 -103q-148 0 -248.5 107t-100.5 264q0 159 99 264.5t249 105.5q151 0 250 -104v90h101l335 -1v-101l-335 1v-202h303l-1 -98h-302v-208zM407 90q108 0 173.5 72.5t65.5 191.5q0 118 -66 191t-174 73q-105 0 -171 -73.5 t-66 -190.5q0 -115 67 -189.5t171 -74.5z" glyph-name="OE" horiz-adv-x="1150" unicode="Œ"/><glyph d="M905 234v-39h-381q13 -52 52.5 -85t89.5 -33q44 0 78 20.5t49 54.5l88 -34q-26 -62 -84 -99t-131 -37q-57 0 -107 27t-84 73q-72 -97 -192 -97q-100 0 -171.5 74.5t-71.5 178.5q0 106 70.5 181t172.5 75q120 0 193 -101q34 46 83.5 72.5t106.5 26.5q74 0 134 -40t85 -107 q9 -22 14 -49.5t5 -44.5zM523 272h285q-2 22 -10 40q-15 39 -50.5 62t-81.5 23q-52 0 -92 -35.5t-51 -89.5zM283 80q65 0 103.5 44t38.5 113t-39 114.5t-103 45.5q-65 0 -104 -45.5t-39 -114.5q0 -65 40 -111t103 -46z" glyph-name="oe" horiz-adv-x="945" unicode="œ"/><glyph d="M442 946l-91 -167h-106l86 167h111zM562 365q-40 -45 -93 -65l138 -300h-115l-126 284h-180v-284h-102v710h102l185 -1q121 0 183 -66q52 -51 53.5 -138t-45.5 -140zM186 613v-234h180q77 0 109 43q23 32 21.5 78t-27.5 74q-32 38 -103 38z" glyph-name="Racute" horiz-adv-x="649" unicode="Ŕ"/><glyph d="M296 722l-91 -167h-106l86 167h111zM173 420q45 66 163 60v-92q-68 13 -113 -25.5t-49 -108.5v-254h-99l-1 480h99v-60z" glyph-name="racute" horiz-adv-x="356" unicode="ŕ"/><glyph d="M562 365q-40 -45 -93 -65l138 -300h-115l-126 284h-180v-284h-102v710h102l185 -1q121 0 183 -66q52 -51 53.5 -138t-45.5 -140zM186 613v-234h180q77 0 109 43q23 32 21.5 78t-27.5 74q-32 38 -103 38zM190 -236l91 167h93l-86 -167h-98z" glyph-name="Rcommaaccent" horiz-adv-x="649" unicode="Ŗ"/><glyph d="M173 420q45 66 163 60v-92q-68 13 -113 -25.5t-49 -108.5v-254h-99l-1 480h99v-60zM-17 -236l91 167h93l-86 -167h-98z" glyph-name="rcommaaccent" horiz-adv-x="356" unicode="ŗ"/><glyph d="M237 779l-85 167h92l54 -98l53 98h93l-86 -167h-121zM562 365q-40 -45 -93 -65l138 -300h-115l-126 284h-180v-284h-102v710h102l185 -1q121 0 183 -66q52 -51 53.5 -138t-45.5 -140zM186 613v-234h180q77 0 109 43q23 32 21.5 78t-27.5 74q-32 38 -103 38z" glyph-name="Rcaron" horiz-adv-x="649" unicode="Ř"/><glyph d="M91 555l-85 167h92l54 -98l53 98h93l-86 -167h-121zM173 420q45 66 163 60v-92q-68 13 -113 -25.5t-49 -108.5v-254h-99l-1 480h99v-60z" glyph-name="rcaron" horiz-adv-x="356" unicode="ř"/><glyph d="M355 779h-106l86 167h111zM555 552l-101 -27q-12 45 -56 71.5t-100 26.5q-51 0 -87.5 -26t-45.5 -67q-6 -37 15.5 -68t69.5 -40q30 -7 110 -21q90 -17 139 -70t49 -135q0 -96 -73 -152t-178 -56q-102 0 -179.5 51.5t-84.5 139.5l102 15q7 -47 56 -76t110 -29 q63 0 102.5 30.5t38.5 75.5q0 31 -22 58t-62 38q-37 10 -137 29q-77 17 -119 66t-42 127q0 89 69 150t167 61q99 0 170.5 -49t88.5 -123z" glyph-name="Sacute" horiz-adv-x="594" unicode="Ś"/><glyph d="M272 566h-106l86 167h111zM406 372l-93 -21q-7 28 -32.5 43.5t-60.5 14.5q-32 0 -53.5 -15.5t-23.5 -40.5q-5 -44 47 -56q60 -15 95 -22q117 -28 117 -141q0 -65 -49.5 -106t-126.5 -41q-76 0 -129.5 35.5t-65.5 95.5l95 16q5 -27 32 -43.5t68 -16.5q38 0 59 15t21 43 q0 40 -56 52q-40 8 -91 22q-52 13 -81.5 50t-29.5 87q0 64 49.5 108.5t121.5 44.5q71 0 122 -34t65 -90z" glyph-name="sacute" horiz-adv-x="445" unicode="ś"/><glyph d="M360 401q90 -17 139 -70t49 -135q0 -86 -59 -140t-149 -65l-21 -27h32q31 0 48.5 -22.5t16.5 -50.5q-1 -27 -19 -48t-44 -21h-103v52h87q21 0 21 21q0 17 -21 17h-87v53l19 24q-94 8 -161.5 58.5t-74.5 131.5l102 15q7 -47 56 -76t110 -29q63 0 102.5 30.5t38.5 75.5 q0 31 -22 58t-62 38q-37 10 -137 29q-77 17 -119 66t-42 127q0 89 69 150t167 61q99 0 170.5 -49t88.5 -123l-101 -27q-12 45 -56 71.5t-100 26.5q-51 0 -87.5 -26t-45.5 -67q-6 -37 15.5 -68t69.5 -40q30 -7 110 -21z" glyph-name="Scedilla" horiz-adv-x="594" unicode="Ş"/><glyph d="M285 275q117 -28 117 -141q0 -60 -42.5 -100t-109.5 -46l-15 -19h32q31 0 48.5 -22.5t16.5 -50.5q-1 -27 -19 -48t-44 -21h-103v52h87q21 0 21 21q0 17 -21 17h-87v53l15 20q-59 10 -99.5 44t-50.5 84l95 16q5 -27 32 -43.5t68 -16.5q38 0 59 15t21 43q0 40 -56 52 q-40 8 -91 22q-52 13 -81.5 50t-29.5 87q0 64 49.5 108.5t121.5 44.5q71 0 122 -34t65 -90l-93 -21q-7 28 -32.5 43.5t-60.5 14.5q-32 0 -53.5 -15.5t-23.5 -40.5q-5 -44 47 -56q60 -15 95 -22z" glyph-name="scedilla" horiz-adv-x="445" unicode="ş"/><glyph d="M241 779l-85 167h92l54 -98l53 98h93l-86 -167h-121zM360 401q90 -17 139 -70t49 -135q0 -96 -73 -152t-178 -56q-102 0 -179.5 51.5t-84.5 139.5l102 15q7 -47 56 -76t110 -29q63 0 102.5 30.5t38.5 75.5q0 31 -22 58t-62 38q-37 10 -137 29q-77 17 -119 66t-42 127 q0 89 69 150t167 61q99 0 170.5 -49t88.5 -123l-101 -27q-12 45 -56 71.5t-100 26.5q-51 0 -87.5 -26t-45.5 -67q-6 -37 15.5 -68t69.5 -40q30 -7 110 -21z" glyph-name="Scaron" horiz-adv-x="594" unicode="Š"/><glyph d="M158 566l-85 167h92l54 -98l53 98h93l-86 -167h-121zM285 275q117 -28 117 -141q0 -65 -49.5 -106t-126.5 -41q-76 0 -129.5 35.5t-65.5 95.5l95 16q5 -27 32 -43.5t68 -16.5q38 0 59 15t21 43q0 40 -56 52q-40 8 -91 22q-52 13 -81.5 50t-29.5 87q0 64 49.5 108.5 t121.5 44.5q71 0 122 -34t65 -90l-93 -21q-7 28 -32.5 43.5t-60.5 14.5q-32 0 -53.5 -15.5t-23.5 -40.5q-5 -44 47 -56q60 -15 95 -22z" glyph-name="scaron" horiz-adv-x="445" unicode="š"/><glyph d="M344 0h-15l-19 -24h32q31 0 48.5 -22.5t16.5 -50.5q-1 -27 -19 -48t-44 -21h-103v52h87q21 0 21 21q0 17 -21 17h-87v53l17 23h-15v609h-227v101h555v-101h-227v-609z" glyph-name="Tcommaaccent" horiz-adv-x="586" unicode="Ţ"/><glyph d="M301 394h-98v-255q0 -28 11 -37t33 -9l54 -1v-92l-80 1l-19 -25h32q31 0 48.5 -22.5t16.5 -50.5q-1 -27 -19 -48t-44 -21h-103v52h87q21 0 21 21q0 17 -21 17h-87v53l24 32q-56 25 -56 115v270h-85v86h85v152h102v-152h98v-86z" glyph-name="tcommaaccent" horiz-adv-x="342" unicode="ţ"/><glyph d="M233 779l-85 167h92l54 -98l53 98h93l-86 -167h-121zM571 710v-101h-227v-609h-101v609h-227v101h555z" glyph-name="Tcaron" horiz-adv-x="586" unicode="Ť"/><glyph d="M309 798v-261h-91v261h91zM325 394h-152q0 -63 0.5 -154.5t0.5 -100.5q0 -28 10.5 -37t33.5 -9l107 -1v-92l-152 1q-101 0 -101 123v270h-56v86h56v152h101v-152h152v-86z" glyph-name="tcaron" horiz-adv-x="367" unicode="ť"/><glyph d="M571 609h-227v-166h144v-101h-144v-342h-101v342h-131v101h131v166h-227v101h555v-101z" glyph-name="Tbar" horiz-adv-x="586" unicode="Ŧ"/><glyph d="M302 402h-99v-80h97v-82h-97v-101q0 -28 11 -37t33 -9l54 -1v-92l-98 1q-102 0 -102 123v116h-85v82h85v80h-84v78h84v152h102v-152h99v-78z" glyph-name="tbar" horiz-adv-x="343" unicode="ŧ"/><glyph d="M504 901v-91h-304v91h304zM524 710h102v-460q0 -116 -82 -190.5t-193 -74.5t-193 74.5t-82 190.5v460h102v-460q0 -71 53.5 -117.5t119.5 -46.5t119.5 46.5t53.5 117.5v460z" glyph-name="Umacron" horiz-adv-x="702" unicode="Ū"/><glyph d="M451 684v-91h-304v91h304zM429 480h99v-480h-99v58q-48 -71 -145 -71q-215 0 -215 238v255h99v-250q0 -76 35 -114.5t91 -38.5q63 0 99 44t36 132v227z" glyph-name="umacron" horiz-adv-x="597" unicode="ū"/><glyph d="M352 758q-53 0 -88.5 36t-35.5 89q0 51 36.5 88.5t87.5 37.5t87.5 -37.5t36.5 -88.5q0 -52 -36.5 -88.5t-87.5 -36.5zM352 940q-24 0 -40 -16t-16 -39q0 -25 16 -41.5t40 -16.5t40 16.5t16 41.5q0 23 -16 39t-40 16zM524 710h102v-460q0 -116 -82 -190.5t-193 -74.5 t-193 74.5t-82 190.5v460h102v-460q0 -71 53.5 -117.5t119.5 -46.5t119.5 46.5t53.5 117.5v460z" glyph-name="Uring" horiz-adv-x="702" unicode="Ů"/><glyph d="M299 541q-53 0 -88.5 36t-35.5 89q0 51 36.5 88.5t87.5 37.5t87.5 -37.5t36.5 -88.5q0 -52 -36.5 -88.5t-87.5 -36.5zM299 723q-24 0 -40 -16t-16 -39q0 -25 16 -41.5t40 -16.5t40 16.5t16 41.5q0 23 -16 39t-40 16zM429 480h99v-480h-99v58q-48 -71 -145 -71 q-215 0 -215 238v255h99v-250q0 -76 35 -114.5t91 -38.5q63 0 99 44t36 132v227z" glyph-name="uring" horiz-adv-x="597" unicode="ů"/><glyph d="M403 946l-92 -167h-105l86 167h111zM492 779h-106l92 167h111zM524 710h102v-460q0 -116 -82 -190.5t-193 -74.5t-193 74.5t-82 190.5v460h102v-460q0 -71 53.5 -117.5t119.5 -46.5t119.5 46.5t53.5 117.5v460z" glyph-name="Uhungarumlaut" horiz-adv-x="702" unicode="Ű"/><glyph d="M350 729l-92 -167h-105l86 167h111zM439 562h-106l92 167h111zM429 253v227h99v-480h-99v58q-48 -71 -145 -71q-215 0 -215 238v255h99v-250q0 -76 35 -114.5t91 -38.5q63 0 99 44t36 132z" glyph-name="uhungarumlaut" horiz-adv-x="597" unicode="ű"/><glyph d="M524 710h102v-460q0 -99 -62 -169t-153 -90h5q-56 -5 -67 -45q-7 -28 13 -43q8 -7 20 -6v-70q-47 -9 -77.5 17.5t-28.5 68.5t39 74q-100 12 -169.5 85t-69.5 178v460h102v-460q0 -71 53.5 -117.5t119.5 -46.5t119.5 46.5t53.5 117.5v460z" glyph-name="Uogonek" horiz-adv-x="702" unicode="Ų"/><glyph d="M429 480h99v-480h-3q-56 -5 -67 -45q-7 -28 13 -43q8 -7 20 -6v-70q-48 -9 -79 19t-27 71t44 74v58q-48 -71 -145 -71q-215 0 -215 238v255h99v-250q0 -76 35 -114.5t91 -38.5q63 0 99 44t36 132v227z" glyph-name="uogonek" horiz-adv-x="597" unicode="ų"/><glyph d="M542 877l-54 -98h-92l85 167h98h23l86 -167h-93zM950 710h119l-237 -710h-102l-187 539l-188 -539h-101l-237 710h119l169 -550l178 550h119l178 -550z" glyph-name="Wcircumflex" horiz-adv-x="1086" unicode="Ŵ"/><glyph d="M383 647l-54 -98h-92l85 167h98h23l86 -167h-93zM646 480h104l-166 -480h-93h-1l-109 325l-113 -325h-93h-1l-161 480h106l103 -334l107 334h106l103 -334z" glyph-name="wcircumflex" horiz-adv-x="764" unicode="ŵ"/><glyph d="M305 876l-54 -98h-92l85 167h98h23l86 -167h-93zM600 710l-245 -416v-294h-100v292l-245 418h119l175 -320v1l177 319h119z" glyph-name="Ycircumflex" horiz-adv-x="610" unicode="Ŷ"/><glyph d="M266 647l-54 -98h-92l85 167h98h23l86 -167h-93zM417 480h106l-283 -704h-106l91 227l-217 477h107l159 -356z" glyph-name="ycircumflex" horiz-adv-x="533" unicode="ŷ"/><glyph d="M205 788q-31 0 -52 21t-21 50q0 30 21 51t52 21q29 0 50 -21.5t21 -50.5t-21 -50t-50 -21zM407 788q-30 0 -51.5 21t-21.5 50q0 30 21.5 51t51.5 21q29 0 50.5 -21.5t21.5 -50.5t-21.5 -50t-50.5 -21zM600 710l-245 -416v-294h-100v292l-245 418h119l175 -320v1l177 319 h119z" glyph-name="Ydieresis" horiz-adv-x="610" unicode="Ÿ"/><glyph d="M432 946l-91 -167h-106l86 167h111zM534 710v-101l-372 -508h367v-101h-486l-2 101l372 508l-371 -1v101z" glyph-name="Zacute" horiz-adv-x="577" unicode="Ź"/><glyph d="M372 716l-91 -167h-106l86 167h111zM417 480v-92l-255 -296h255v-92h-379v92l259 296h-259v92h379z" glyph-name="zacute" horiz-adv-x="455" unicode="ź"/><glyph d="M283 789q-29 0 -50 20.5t-21 50.5q0 29 21 50.5t50 21.5t50.5 -21.5t21.5 -50.5t-21.5 -50t-50.5 -21zM534 710v-101l-372 -508h367v-101h-486l-2 101l372 508l-371 -1v101z" glyph-name="Zdotaccent" horiz-adv-x="577" unicode="Ż"/><glyph d="M223 559q-29 0 -50 20.5t-21 50.5q0 29 21 50.5t50 21.5t50.5 -21.5t21.5 -50.5t-21.5 -50t-50.5 -21zM417 480v-92l-255 -296h255v-92h-379v92l259 296h-259v92h379z" glyph-name="zdotaccent" horiz-adv-x="455" unicode="ż"/><glyph d="M227 779l-85 167h92l54 -98l53 98h93l-86 -167h-121zM534 710v-101l-372 -508h367v-101h-486l-2 101l372 508l-371 -1v101z" glyph-name="Zcaron" horiz-adv-x="577" unicode="Ž"/><glyph d="M167 549l-85 167h92l54 -98l53 98h93l-86 -167h-121zM417 480v-92l-255 -296h255v-92h-379v92l259 296h-259v92h379z" glyph-name="zcaron" horiz-adv-x="455" unicode="ž"/><glyph d="M427 394h-151l-4 -27h1l-32 -227q-10 -68 -57 -110.5t-112 -42.5h-56l3 94h60q51 0 60 59l29 204h-1l7 50h-123v86h135l13 91q10 68 57.5 110.5t111.5 42.5h56l-2 -94h-61q-51 0 -60 -59l-13 -91h139v-86z" glyph-name="florin" horiz-adv-x="447" unicode="ƒ"/><glyph d="M555 552l-101 -27q-12 45 -56 71.5t-100 26.5q-51 0 -87.5 -26t-45.5 -67q-6 -37 15.5 -68t69.5 -40q30 -7 110 -21q90 -17 139 -70t49 -135q0 -96 -73 -152t-178 -56q-102 0 -179.5 51.5t-84.5 139.5l102 15q7 -47 56 -76t110 -29q63 0 102.5 30.5t38.5 75.5 q0 31 -22 58t-62 38q-37 10 -137 29q-77 17 -119 66t-42 127q0 89 69 150t167 61q99 0 170.5 -49t88.5 -123zM256 -81h93l-86 -167h-98z" glyph-name="Scommaaccent" horiz-adv-x="594" unicode="Ș"/><glyph d="M406 372l-93 -21q-7 28 -32.5 43.5t-60.5 14.5q-32 0 -53.5 -15.5t-23.5 -40.5q-5 -44 47 -56q60 -15 95 -22q117 -28 117 -141q0 -65 -49.5 -106t-126.5 -41q-76 0 -129.5 35.5t-65.5 95.5l95 16q5 -27 32 -43.5t68 -16.5q38 0 59 15t21 43q0 40 -56 52q-40 8 -91 22 q-52 13 -81.5 50t-29.5 87q0 64 49.5 108.5t121.5 44.5q71 0 122 -34t65 -90zM172 -76h93l-86 -167h-98z" glyph-name="scommaaccent" horiz-adv-x="445" unicode="ș"/><glyph d="M571 710v-101h-227v-609h-101v609h-227v101h555zM155 -236l91 167h93l-86 -167h-98z" glyph-name="uni021A" horiz-adv-x="586" unicode="Ț"/><glyph d="M301 394h-98v-255q0 -28 11 -37t33 -9l54 -1v-92l-98 1q-102 0 -102 123v270h-85v86h85v152h102v-152h98v-86zM47 -236l91 167h93l-86 -167h-98z" glyph-name="uni021B" horiz-adv-x="342" unicode="ț"/><glyph d="M316 779h-93l-53 98l-54 -98h-92l85 167h98h23z" glyph-name="circumflex" horiz-adv-x="339" unicode="ˆ"/><glyph d="M223 946h93l-86 -167h-98h-23l-85 167h92l54 -98z" glyph-name="caron" horiz-adv-x="339" unicode="ˇ"/><glyph d="M271 947h89q-3 -68 -52.5 -117t-115.5 -49q-69 0 -118.5 48.5t-52.5 117.5h90q1 -36 25 -57t56 -21q31 0 54.5 21.5t24.5 56.5z" glyph-name="breve" horiz-adv-x="381" unicode="˘"/><glyph d="M93 789q-31 0 -52 21t-21 50q0 30 21 51t52 21q29 0 50 -21.5t21 -50.5t-21 -50t-50 -21z" glyph-name="dotaccent" horiz-adv-x="184" unicode="˙"/><glyph d="M138 758q-53 0 -88.5 36t-35.5 89q0 51 36.5 88.5t87.5 37.5t87.5 -37.5t36.5 -88.5q0 -52 -36.5 -88.5t-87.5 -36.5zM138 827q24 0 40 16.5t16 41.5q0 23 -16 39t-40 16t-40 -16t-16 -39q0 -25 16 -41.5t40 -16.5z" glyph-name="ring" horiz-adv-x="282" unicode="˚"/><glyph d="M280 0h96q-56 -5 -67 -45q-7 -28 13 -43q8 -7 20 -6v-70q-48 -9 -79 19t-27 71t44 74z" glyph-name="ogonek" horiz-adv-x="600" unicode="˛"/><glyph d="M24 823q-5 50 25.5 86.5t76.5 36.5q67 0 103 -63q26 -37 47 -37q16 0 22.5 15t-1.5 37h81q6 -53 -24.5 -92t-77.5 -39q-68 0 -107 67q-13 20 -21 26.5t-22 6.5q-13 0 -20.5 -13t-4.5 -31h-77z" glyph-name="tilde" horiz-adv-x="396" unicode="˜"/><glyph d="M110 779h-105l86 167h111zM291 779h-106l92 167h111z" glyph-name="hungarumlaut" horiz-adv-x="416" unicode="˝"/><glyph d="M-148 779l-91 167h111l86 -167h-106z" glyph-name="gravecomb" unicode="̀"/><glyph d="M-105 779h-106l86 167h111z" glyph-name="acutecomb" unicode="́"/><glyph d="M44 779h-92l-54 98l-54 -98h-92l86 167h98h23z" glyph-name="uni0302" unicode="̂"/><glyph d="M-369 823q-5 50 25.5 86.5t76.5 36.5q67 0 103 -63q26 -37 47 -37q16 0 22.5 15t-1.5 37h81q6 -53 -24.5 -92t-77.5 -39q-68 0 -107 67q-13 20 -21 26.5t-22 6.5q-13 0 -20.5 -13t-4.5 -31h-77z" glyph-name="tildecomb" unicode="̃"/><glyph d="M-327 899h304v-91h-304v91z" glyph-name="uni0304" unicode="̄"/><glyph d="M-110 947h90q-3 -68 -52.5 -117t-116.5 -49q-68 0 -117.5 48.5t-53.5 117.5h90q1 -36 25 -57t56 -21t55 21.5t24 56.5z" glyph-name="uni0306" unicode="̆"/><glyph d="M-221 789q-29 0 -50 20.5t-21 50.5q0 29 21 50.5t50 21.5t50.5 -21.5t21.5 -50.5t-21.5 -50t-50.5 -21z" glyph-name="uni0307" unicode="̇"/><glyph d="M-274 789q-30 0 -51.5 21t-21.5 50q0 30 21.5 51t51.5 21q29 0 50.5 -21.5t21.5 -50.5t-21.5 -50t-50.5 -21zM-82 789q-30 0 -50.5 20.5t-20.5 50.5q0 29 21 50.5t50 21.5t50.5 -21.5t21.5 -50.5t-21.5 -50t-50.5 -21z" glyph-name="uni0308" unicode="̈"/><glyph d="M-138 758q-53 0 -88.5 36t-35.5 89q0 51 36.5 88.5t87.5 37.5t87.5 -37.5t36.5 -88.5q0 -52 -36.5 -88.5t-87.5 -36.5zM-138 827q24 0 40 16.5t16 41.5q0 23 -16 39t-40 16t-40 -16t-16 -39q0 -25 16 -41.5t40 -16.5z" glyph-name="uni030A" unicode="̊"/><glyph d="M-240 779h-105l86 167h111zM-59 779h-106l92 167h111z" glyph-name="uni030B" unicode="̋"/><glyph d="M-108 946h92l-85 -167h-98h-23l-86 167h92l54 -98z" glyph-name="uni030C" unicode="̌"/><glyph glyph-name="uni0312" unicode="̒"/><glyph d="M-116 -69h93l-86 -167h-98z" glyph-name="uni0326" unicode="̦"/><glyph d="M-360 -160v52h87q21 0 21 21q0 17 -21 17h-87v53l44 58l48 -1v-29l-23 -29h32q31 0 48.5 -22.5t16.5 -50.5q-1 -27 -19 -48t-44 -21h-103z" glyph-name="uni0327" unicode="̧"/><glyph glyph-name="uni0328" unicode="̨"/><glyph glyph-name="uni0335" unicode="̵"/><glyph glyph-name="uni0336" unicode="̶"/><glyph glyph-name="uni0337" unicode="̷"/><glyph d="M-451 0h-141l458 710h133z" glyph-name="uni0338" unicode="̸"/><glyph d="M482 81h90v-81h-206v81q52 30 81 77.5t30 100.5q1 63 -40 105.5t-111 43.5q-71 0 -112.5 -43t-41.5 -107q2 -53 30.5 -101t80.5 -76v-81h-207v81h91q-84 78 -84 189q5 96 74.5 162t168.5 66q99 -1 168 -67.5t72 -160.5q0 -111 -84 -189z" glyph-name="Omega" horiz-adv-x="638" unicode="Ω"/><glyph d="M581 394h-98q0 -46 0.5 -141t0.5 -114q0 -28 10.5 -37t33.5 -9l53 -1v-92l-98 1q-101 0 -101 123v270h-174v-394h-101v394h-91v86h192h275h98v-86z" glyph-name="pi" horiz-adv-x="622" unicode="π"/><glyph d="M594 779h-106l-91 167h111zM950 710h119l-237 -710h-102l-187 539l-188 -539h-101l-237 710h119l169 -550l178 550h119l178 -550z" glyph-name="Wgrave" horiz-adv-x="1086" unicode="Ẁ"/><glyph d="M435 549h-106l-91 167h111zM646 480h104l-166 -480h-93h-1l-109 325l-113 -325h-93h-1l-161 480h106l103 -334l107 334h106l103 -334z" glyph-name="wgrave" horiz-adv-x="764" unicode="ẁ"/><glyph d="M690 946l-92 -167h-109l86 167h115zM950 710h119l-237 -710h-102l-187 539l-188 -539h-101l-237 710h119l169 -550l178 550h119l178 -550z" glyph-name="Wacute" horiz-adv-x="1086" unicode="Ẃ"/><glyph d="M531 716l-92 -167h-109l86 167h115zM646 480h104l-166 -480h-93h-1l-109 325l-113 -325h-93h-1l-161 480h106l103 -334l107 334h106l103 -334z" glyph-name="wacute" horiz-adv-x="764" unicode="ẃ"/><glyph d="M441 789q-31 0 -52 21t-21 50q0 30 21 51t52 21q29 0 50 -21.5t21 -50.5t-21 -50t-50 -21zM643 789q-30 0 -51.5 21t-21.5 50q0 30 21.5 51t51.5 21q29 0 50.5 -21.5t21.5 -50.5t-21.5 -50t-50.5 -21zM950 710h119l-237 -710h-102l-187 539l-188 -539h-101l-237 710h119 l169 -550l178 550h119l178 -550z" glyph-name="Wdieresis" horiz-adv-x="1086" unicode="Ẅ"/><glyph d="M282 559q-31 0 -52 21t-21 50q0 30 21 51t52 21q29 0 50 -21.5t21 -50.5t-21 -50t-50 -21zM484 559q-30 0 -51.5 21t-21.5 50q0 30 21.5 51t51.5 21q29 0 50.5 -21.5t21.5 -50.5t-21.5 -50t-50.5 -21zM646 480h104l-166 -480h-93h-1l-109 325l-113 -325h-93h-1l-161 480 h106l103 -334l107 334h106l103 -334z" glyph-name="wdieresis" horiz-adv-x="764" unicode="ẅ"/><glyph d="M358 778h-106l-91 167h111zM600 710l-245 -416v-294h-100v292l-245 418h119l175 -320v1l177 319h119z" glyph-name="Ygrave" horiz-adv-x="610" unicode="Ỳ"/><glyph d="M319 549h-106l-91 167h111zM417 480h106l-283 -704h-106l91 227l-217 477h107l159 -356z" glyph-name="ygrave" horiz-adv-x="533" unicode="ỳ"/><glyph d="M65 314h776v-101h-776v101z" glyph-name="endash" horiz-adv-x="906" unicode="–"/><glyph d="M78 314h977v-101h-977v101z" glyph-name="emdash" horiz-adv-x="1134" unicode="—"/><glyph d="M115 614q24 -5 39.5 -23.5t15.5 -42.5q0 -28 -20 -48t-48 -20t-48 20t-20 48q0 16 8 32l52 106h36z" glyph-name="quoteleft" horiz-adv-x="204" unicode="‘"/><glyph d="M170 598q0 -17 -9 -32l-51 -106h-36l14 73q-23 4 -38.5 23t-15.5 42q0 28 20 48t48 20t48 -20t20 -48z" glyph-name="quoteright" horiz-adv-x="204" unicode="’"/><glyph d="M208 67q0 -17 -10 -34l-51 -104h-35l14 72q-24 5 -39.5 23.5t-15.5 42.5q0 28 20.5 48t48.5 20q27 0 47.5 -20t20.5 -48z" glyph-name="quotesinglbase" horiz-adv-x="210" unicode="‚"/><glyph d="M135 614q24 -5 39.5 -23.5t15.5 -42.5q0 -28 -20.5 -48t-48.5 -20q-27 0 -47.5 20t-20.5 48q0 18 9 32l52 106h35zM293 614q24 -5 39.5 -23.5t15.5 -42.5q0 -28 -20.5 -48t-48.5 -20q-27 0 -47.5 20t-20.5 48q0 16 9 32l52 106h36z" glyph-name="quotedblleft" horiz-adv-x="401" unicode="“"/><glyph d="M122 666q27 0 47.5 -20t20.5 -48q0 -14 -9 -32l-52 -106h-35l14 73q-23 5 -39 23.5t-16 41.5q0 28 20 48t49 20zM348 598q0 -17 -9 -32l-51 -106h-36l14 73q-23 5 -39 23.5t-16 41.5q0 28 20 48t49 20q28 0 48 -20t20 -48z" glyph-name="quotedblright" horiz-adv-x="401" unicode="”"/><glyph d="M89 135q28 0 48 -20t20 -48q0 -18 -9 -32l-51 -106h-36l14 72q-23 5 -38.5 23.5t-15.5 42.5q0 28 20 48t48 20zM316 67q0 -16 -9 -32l-52 -106h-36l15 72q-24 5 -39.5 23.5t-15.5 42.5q0 28 20.5 48t48.5 20q27 0 47.5 -20t20.5 -48z" glyph-name="quotedblbase" horiz-adv-x="347" unicode="„"/><glyph d="M308 610v-75h-107v-271h-74v271h-107v75h107v100h74v-100h107z" glyph-name="dagger" horiz-adv-x="328" unicode="†"/><glyph d="M310 449v-74h-105v-111h-74v111h-109v74h109v76h-111v75h111v110h74v-110h103v-75h-103v-76h105z" glyph-name="daggerdbl" horiz-adv-x="330" unicode="‡"/><glyph d="M194 116q-58 0 -100 41.5t-42 97.5q0 58 42 99.5t100 41.5q57 0 99 -41.5t42 -99.5q0 -56 -42 -97.5t-99 -41.5z" glyph-name="bullet" horiz-adv-x="387" unicode="•"/><glyph d="M155 -14q-28 0 -48 20t-20 47q0 29 19.5 48.5t48.5 19.5q28 0 48 -20t20 -48q0 -27 -20 -47t-48 -20zM381 -14q-28 0 -48 20t-20 47q0 29 19.5 48.5t48.5 19.5q28 0 48 -20t20 -48q0 -27 -20 -47t-48 -20zM607 -14q-28 0 -48 20t-20 47q0 29 19.5 48.5t48.5 19.5 q28 0 48 -20t20 -48q0 -27 -20 -47t-48 -20z" glyph-name="ellipsis" horiz-adv-x="762" unicode="…"/><glyph d="M223 345q-74 -1 -118.5 51t-44.5 140q0 86 43.5 138.5t115.5 52.5q73 1 117.5 -51.5t44.5 -139.5q0 -86 -43 -138.5t-115 -52.5zM726 710h104l-541 -710h-104zM135 536q0 -53 23.5 -84t62.5 -32q39 1 62 32t23 84q0 52 -23 83t-62 31h-1q-39 0 -62 -31t-23 -83zM793 366 q73 1 117.5 -51.5t44.5 -139.5q0 -86 -43 -138t-115 -53q-74 -1 -118.5 51.5t-44.5 139.5q0 86 43.5 138.5t115.5 52.5zM1319 175q0 -86 -43 -138t-115 -53q-74 -1 -118.5 51.5t-44.5 139.5q0 86 43.5 138.5t115.5 52.5q73 1 117.5 -51.5t44.5 -139.5zM795 59q39 1 62 32 t23 84q0 52 -23 83t-62 31h-1q-39 0 -62 -31t-23 -83q0 -53 23.5 -84t62.5 -32zM1159 59q39 1 61.5 32t22.5 84t-22.5 83.5t-61.5 30.5h-1h-1q-38 0 -61 -31t-23 -83q0 -53 23 -84t63 -32z" glyph-name="perthousand" horiz-adv-x="1359" unicode="‰"/><glyph d="M121 676l-45 -185h-59l5 185q1 31 19 47t40 14q22 0 35 -15.5t5 -45.5z" glyph-name="minute" horiz-adv-x="183" unicode="′"/><glyph d="M310 480l-162 -240l162 -240h-108l-162 240l162 240h108z" glyph-name="guilsinglleft" horiz-adv-x="334" unicode="‹"/><glyph d="M132 480l162 -240l-162 -240h-109l162 240l-162 240h109z" glyph-name="guilsinglright" horiz-adv-x="334" unicode="›"/><glyph d="M264 529l11 63l-48 48l65 9l29 59l30 -59l65 -9l-48 -48l13 -63l-60 30zM81 297l11 65l-47 46l65 10l30 58l30 -58l65 -10l-49 -46l12 -65l-59 31zM445 297l12 65l-47 46l65 10l28 58l29 -58l66 -10l-47 -46l11 -65l-59 31z" glyph-name="uni2042" horiz-adv-x="643" unicode="⁂"/><glyph d="M-69 0h-104l541 710h104z" glyph-name="fraction" horiz-adv-x="299" unicode="⁄"/><glyph d="M667 131l61 -75q-94 -75 -218 -75q-112 0 -202 65t-129 169h-114v96h91q-2 26 -2 39q0 26 3 48h-92v96h116q40 103 129 166t200 63q96 0 189 -51l-46 -85q-73 40 -143 40t-129 -36t-93 -97h240l-25 -96h-248q-4 -20 -4 -48q0 -20 3 -39h228l-23 -96h-174 q33 -62 93.5 -99.5t131.5 -37.5q90 0 157 53z" glyph-name="Euro" horiz-adv-x="753" unicode="€"/><glyph d="M945 251q-96 0 -169.5 68t-73.5 167q0 101 72.5 168.5t170.5 67.5t170 -67t72 -169q0 -101 -72 -168t-170 -67zM522 175v535h101v-710h-101l-351 535v-535h-101v710h101zM945 626q-62 0 -102.5 -40t-40.5 -100q0 -56 41.5 -98t101.5 -42q61 0 101.5 41.5t40.5 98.5 q0 60 -40 100t-102 40zM763 124v82h364v-82h-364z" glyph-name="afii61352" horiz-adv-x="1257" unicode="№"/><glyph d="M267 723q93 0 159 -66t66 -159q0 -94 -66 -160t-159 -66q-95 0 -161 66t-66 160q0 93 66.5 159t160.5 66zM267 318q76 0 128.5 52t52.5 128t-52.5 128t-128.5 52q-77 0 -129 -52t-52 -128q0 -78 51 -129t130 -51zM350 542v-4v-6q-3 -62 -77 -59h-24v-78h-44v203h44h24 q74 2 77 -56zM284 512q18 1 19 20q1 12 -6.5 17.5t-23.5 5.5h-24v-43h35z" glyph-name="uni2117" horiz-adv-x="600" unicode="℗"/><glyph d="M27 660v50h203v-50h-79v-210h-48v210h-76zM482 710h47v-260h-47v148l-63 -148h-49l-62 147v-147h-47v260h47l86 -203z" glyph-name="trademark" horiz-adv-x="585" unicode="™"/><glyph d="M104 598q-3 -1 -9 -1h-59v73h43q21 0 25 20v20h73v-367h-73v255zM626 710h104l-541 -710h-104zM822 190q22 -14 36 -38t14 -50q0 -45 -35.5 -79t-96.5 -34q-60 0 -96 33.5t-36 77.5q0 59 49 90q-40 31 -38 77q1 41 34.5 72t86.5 31q52 0 85 -30t35 -71q3 -48 -38 -79z M740 301q-26 -1 -39.5 -12t-12.5 -27q-1 -16 13 -27.5t39 -11.5q24 0 38 11.5t14 27.5q1 16 -13 27.5t-39 11.5zM801 105q1 19 -15 33.5t-46 14.5t-46 -14.5t-15 -34.5q0 -19 16 -32.5t45 -13.5q28 0 44 13.5t17 33.5z" glyph-name="oneeighth" horiz-adv-x="924" unicode="⅛"/><glyph d="M308 464q0 -54 -37.5 -90.5t-91.5 -36.5q-57 0 -95 40t-33 96h72q-5 -27 11.5 -46t44.5 -19q24 0 40.5 16t16.5 40q0 28 -20 45q-29 24 -68 5l-30 57l65 66h-118v73h230v-63l-65 -66q33 -13 50 -36q28 -35 28 -81zM727 710h104l-541 -710h-104zM923 190q22 -14 36 -38 t14 -50q0 -45 -35.5 -79t-96.5 -34q-60 0 -96 33.5t-36 77.5q0 59 49 90q-40 31 -38 77q1 41 34.5 72t86.5 31q52 0 85 -30t35 -71q3 -48 -38 -79zM841 301q-26 -1 -39.5 -12t-12.5 -27q-1 -16 13 -27.5t39 -11.5q24 0 38 11.5t14 27.5q1 16 -13 27.5t-39 11.5zM902 105 q1 19 -15 33.5t-46 14.5t-46 -14.5t-15 -34.5q0 -19 16 -32.5t45 -13.5q28 0 44 13.5t17 33.5z" glyph-name="threeeighths" horiz-adv-x="1025" unicode="⅜"/><glyph d="M51 477h72q-3 -27 14 -46.5t45 -19.5q25 0 43 17t18 41q1 29 -17 47.5t-47 18.5q-37 0 -51 -27l-67 17l46 185h196v-73h-139l-11 -41q17 5 33 5q56 0 92.5 -37.5t36.5 -94.5q0 -53 -39 -91.5t-94 -38.5q-58 0 -96 40.5t-35 97.5zM289 0h-104l541 710h104zM841 -11 q-60 0 -96 33.5t-36 77.5q0 59 49 90q-40 31 -38 77q1 41 34.5 72t86.5 31q52 0 85 -30t35 -71q3 -48 -38 -79q22 -14 36 -38t14 -50q0 -45 -35.5 -79t-96.5 -34zM841 223q24 0 38 11.5t14 27.5q1 16 -13 27.5t-39 11.5q-26 -1 -39.5 -12t-12.5 -27q-1 -16 13 -27.5 t39 -11.5zM841 58q28 0 44 13.5t17 33.5q1 19 -15 33.5t-46 14.5t-46 -14.5t-15 -34.5q0 -19 16 -32.5t45 -13.5z" glyph-name="fiveeighths" horiz-adv-x="1025" unicode="⅝"/><glyph d="M317 634q-135 -99 -135 -291h-76q0 178 112 291h-167v76h266v-76zM736 710h104l-541 -710h-104zM932 190q22 -14 36 -38t14 -50q0 -45 -35.5 -79t-96.5 -34q-60 0 -96 33.5t-36 77.5q0 59 49 90q-40 31 -38 77q1 41 34.5 72t86.5 31q52 0 85 -30t35 -71q3 -48 -38 -79z M850 301q-26 -1 -39.5 -12t-12.5 -27q-1 -16 13 -27.5t39 -11.5q24 0 38 11.5t14 27.5q1 16 -13 27.5t-39 11.5zM911 105q1 19 -15 33.5t-46 14.5t-46 -14.5t-15 -34.5q0 -19 16 -32.5t45 -13.5q28 0 44 13.5t17 33.5z" glyph-name="seveneighths" horiz-adv-x="1034" unicode="⅞"/><glyph d="M509 358q67 0 110.5 -43.5t43.5 -109.5v-51q0 -67 -44 -110.5t-110 -43.5h-189v63h189q41 0 66 25.5t25 65.5v51q0 40 -25.5 65t-65.5 25h-322v-107l-139 139l139 138v-107h322z" glyph-name="arrowleft" horiz-adv-x="706" unicode="←"/><glyph d="M365 619l139 -139h-106v-350q0 -66 -43.5 -109.5t-110.5 -43.5h-51q-66 0 -109.5 43.5t-43.5 109.5v189h63v-189q0 -40 25 -65t65 -25h51q40 0 65.5 25t25.5 65v350h-108z" glyph-name="arrowup" horiz-adv-x="548" unicode="↑"/><glyph d="M663 327l-139 -139v107h-323q-40 0 -65 -25t-25 -65v-51q0 -40 25 -65.5t65 -25.5h189v-63h-189q-66 0 -109.5 43.5t-43.5 110.5v51q0 66 43.5 109.5t109.5 43.5h323v107z" glyph-name="arrowright" horiz-adv-x="706" unicode="→"/><glyph d="M351 619q67 0 110 -43.5t43 -109.5v-189h-62v189q0 40 -25.5 65t-65.5 25h-51q-40 0 -65.5 -25t-25.5 -65v-350h108l-138 -139l-139 139h107v350q0 66 43.5 109.5t109.5 43.5h51z" glyph-name="arrowdown" horiz-adv-x="544" unicode="↓"/><glyph d="M585 413l170 -169l-170 -170l-48 49l87 86h-292h-161l87 -86l-49 -49l-169 170l169 169l49 -48l-89 -88h294h162l-88 88z" glyph-name="arrowboth" horiz-adv-x="795" unicode="↔"/><glyph d="M249 124l88 89l48 -48l-169 -170l-170 170l49 48l86 -87v292v161l-86 -87l-49 49l170 169l169 -169l-48 -49l-88 89v-294v-163z" glyph-name="arrowupdn" horiz-adv-x="430" unicode="↕"/><glyph d="M164 404l339 -340l-44 -45l-340 339l-75 -75v197l196 -1z" glyph-name="uni2196" horiz-adv-x="547" unicode="↖"/><glyph d="M282 480h240v-240h-68v124l-363 -364l-47 48l362 364h-124v68z" glyph-name="uni2197" horiz-adv-x="565" unicode="↗"/><glyph d="M428 122l75 75v-197l-196 1l76 76l-339 339l44 45z" glyph-name="uni2198" horiz-adv-x="547" unicode="↘"/><glyph d="M522 435l-363 -365l124 1v-69h-239v240h68l-1 -123l363 363z" glyph-name="uni2199" horiz-adv-x="565" unicode="↙"/><glyph d="M259 716q71 -25 128 -68t92.5 -94.5t58 -111.5t24.5 -119t-8 -118q-13 -76 -55.5 -129t-98 -75.5t-117.5 -19.5t-114 30t-87.5 82t-37.5 128q-4 94 37.5 162t103 94.5t131.5 20t121 -47.5q-65 123 -213 185zM134 227q4 -48 28 -84t58 -53t74 -18.5t75 13t61.5 47.5 t33.5 80q4 15 8 45q-4 68 -42.5 112t-89 51t-99.5 -7.5t-80.5 -65t-26.5 -120.5z" glyph-name="partialdiff" horiz-adv-x="611" unicode="∂"/><glyph d="M783 636l-76 -69q58 -92 54 -213q-5 -163 -102 -267t-247 -104q-142 0 -240 98l-77 -69l-55 60l80 73q-58 95 -58 209q0 159 99.5 264.5t249.5 105.5q146 0 245 -93l72 65zM174 354q0 -74 29 -134l371 336q-65 62 -163 62q-106 0 -171.5 -73.5t-65.5 -190.5zM650 354 q0 76 -28 135l-371 -336q65 -63 161 -63q108 0 173 72.5t65 191.5z" glyph-name="emptyset" horiz-adv-x="823" unicode="∅"/><glyph d="M404 710l236 -611v-99h-580v99l236 611h108zM350 571l-183 -472h366z" glyph-name="uni2206" horiz-adv-x="700" unicode="∆"/><glyph d="M575 378h-98v-211q0 -52 29 -70.5t69 -14.5v-96q-85 -14 -142.5 32.5t-57.5 134.5v225h-157v-394h-102v394h-88v102h190h259h98v-102z" glyph-name="product" horiz-adv-x="615" unicode="∏"/><glyph d="M47 0v96l237 195l-237 192v97h365v-94h-234l235 -195l-235 -197h234v-94h-365z" glyph-name="summation" horiz-adv-x="459" unicode="∑"/><glyph d="M40 274h337v-88h-337v88z" glyph-name="minus" horiz-adv-x="417" unicode="−"/><glyph d="M463 707h214v-95h-154l-243 -612h-97l-181 480h95l136 -355z" glyph-name="radical" horiz-adv-x="691" unicode="√"/><glyph d="M817 280v-4q-3 -80 -57.5 -133t-136.5 -53q-85 0 -158 82l-34 37q-5 -6 -11.5 -13t-10.5 -11.5t-5 -6.5q-80 -88 -171 -88q-79 0 -134.5 53.5t-58.5 132.5v4v3q3 79 58.5 132.5t134.5 53.5q91 0 171 -88q1 -2 5 -6.5t10.5 -11.5t11.5 -13l34 37q73 82 158 82 q82 0 136.5 -53t57.5 -133v-3zM333 241l4 5q4 5 13 15t17 19l-34 38q-50 57 -100 57q-40 0 -68 -27.5t-30 -67.5q1 -40 29.5 -68t68.5 -28q50 0 100 57zM623 184q43 0 70 26t29 70q-2 43 -29 69t-70 26q-44 0 -89 -52q-7 -10 -39 -43q34 -38 39 -44q45 -52 89 -52z" glyph-name="infinity" horiz-adv-x="857" unicode="∞"/><glyph d="M250 724h56v-94h-49q-52 0 -52 -59v-227v-204q0 -68 -41.5 -110.5t-105.5 -42.5h-56v94h49q52 0 52 59v227v204q0 68 41 110.5t106 42.5z" glyph-name="integral" horiz-adv-x="308" unicode="∫"/><glyph d="M361 433h62q0 -46 -32 -76t-79 -30q-43 0 -99 42q-42 30 -65 30q-21 0 -33 -10.5t-14 -25.5h-61q0 45 31.5 75.5t79.5 30.5q43 0 98 -42q43 -30 66 -30q42 0 46 36zM361 263h62q0 -45 -32 -75.5t-79 -30.5q-40 0 -99 42q-42 30 -65 30q-21 0 -33 -10.5t-14 -25.5h-61 q0 46 31.5 76t79.5 30q42 0 98 -41q42 -31 66 -31q21 0 32.5 10.5t13.5 25.5z" glyph-name="approxequal" horiz-adv-x="463" unicode="≈"/><glyph d="M503 307h-151l-72 -133h223v-88h-271l-63 -116h-96l63 116h-86v88h134l72 133h-206v88h255l68 125h96l-68 -125h102v-88z" glyph-name="notequal" horiz-adv-x="552" unicode="≠"/><glyph d="M490 580v-109l-296 -99l296 -99v-110l-455 156v106zM35 0v110h455v-110h-455z" glyph-name="lessequal" horiz-adv-x="534" unicode="≤"/><glyph d="M66 580l455 -155v-106l-455 -156v110l295 99l-295 99v109zM66 0v110h455v-110h-455z" glyph-name="greaterequal" horiz-adv-x="579" unicode="≥"/><glyph d="M48 710h710v-710h-710v710z" glyph-name="filledbox" horiz-adv-x="807" unicode="■"/><glyph d="M48 710h710v-710h-710v710zM137 621v-532h532v532h-532z" glyph-name="H22073" horiz-adv-x="807" unicode="□"/><glyph d="M894 0l-423 710l-423 -710h846z" glyph-name="triagup" horiz-adv-x="943" unicode="▲"/><glyph d="M893 3h-846l424 710zM750 82l-280 469l-280 -469h560z" glyph-name="uni25B3" horiz-adv-x="940" unicode="△"/><glyph d="M368 710l203 -355l-203 -355h-112l-202 355l202 355h112zM312 102l140 253l-140 253l-140 -253z" glyph-name="lozenge" horiz-adv-x="624" unicode="◊"/><glyph d="M437 -55q-161 0 -275 113.5t-114 274.5q0 160 114 274t275 114q160 0 274 -114t114 -274t-114 -274t-274 -114zM437 29q125 0 214.5 89t89.5 215q0 125 -89.5 215t-214.5 90q-126 0 -215.5 -89.5t-89.5 -215.5t89.5 -215t215.5 -89z" glyph-name="circle" horiz-adv-x="873" unicode="○"/><glyph d="M437 -55q-161 0 -275 113.5t-114 274.5q0 160 114 274t275 114q160 0 274 -114t114 -274t-114 -274t-274 -114z" glyph-name="H18533" horiz-adv-x="873" unicode="●"/><glyph d="M437 721q160 0 274 -114t114 -274t-114 -274t-274 -114q-161 0 -275 113.5t-114 274.5q0 160 114 274t275 114zM399 635q-113 -14 -190 -100t-77 -202q0 -63 25 -121l242 164v259zM741 333q0 115 -77 201.5t-189 100.5v-259l241 -164q25 58 25 121zM196 147 q78 -101 203 -116v253zM475 31q125 15 202 116l-202 137v-253z" glyph-name="uni262E" horiz-adv-x="873" unicode="☮"/><glyph d="M439 -55q-163 0 -277 113t-114 276q0 159 114.5 272t276.5 113q160 0 272.5 -113t112.5 -272q0 -162 -112.5 -275.5t-272.5 -113.5zM439 24q130 0 220 89t90 220t-90.5 221t-219.5 90q-133 0 -222.5 -90t-89.5 -221q0 -134 88.5 -221.5t223.5 -87.5zM316 361 q-25 0 -42.5 18.5t-17.5 42.5t17.5 42t42.5 18q24 0 41 -18t17 -42t-17 -42.5t-41 -18.5zM564 358q-25 0 -42.5 18t-17.5 42t17.5 42t42.5 18q24 0 41.5 -18t17.5 -42t-17.5 -42t-41.5 -18zM269 297h69q-5 -44 25 -77t76 -33q45 0 75 32.5t28 77.5h69q3 -73 -47.5 -126 t-124.5 -53t-124 53t-46 126z" glyph-name="smileface" horiz-adv-x="873" unicode="☺"/><glyph d="M640 603l65 -68l-437 -403l-223 216l66 67l159 -154z" glyph-name="uni2713" horiz-adv-x="750" unicode="✓"/><glyph d="M437 721q160 0 274 -114t114 -274t-114 -274t-274 -114q-161 0 -275 113.5t-114 274.5q0 160 114 274t275 114zM437 29q125 0 214.5 89t89.5 215q0 125 -89.5 215t-214.5 90q-126 0 -215.5 -89.5t-89.5 -215.5t89.5 -215t215.5 -89zM416 510h73l1 -367h-74v255 q-3 -1 -9 -1h-59v73h44q21 0 24 20v20z" glyph-name="uni2780" horiz-adv-x="873" unicode="➀"/><glyph d="M437 721q160 0 274 -114t114 -274t-114 -274t-274 -114q-161 0 -275 113.5t-114 274.5q0 160 114 274t275 114zM437 29q125 0 214.5 89t89.5 215q0 125 -89.5 215t-214.5 90q-126 0 -215.5 -89.5t-89.5 -215.5t89.5 -215t215.5 -89zM573 409q2 -25 -1.5 -44t-21 -39 t-26.5 -29t-45 -36t-49 -37l135 1v-72l-254 -1q-1 40 9.5 64t38.5 44q104 80 116 89q22 19 26 38q4 32 -15 49.5t-52 13.5q-48 -8 -42 -64h-73q-4 57 28.5 94.5t86.5 42.5h11h14q47 -4 78 -35.5t36 -78.5z" glyph-name="uni2781" horiz-adv-x="873" unicode="➁"/><glyph d="M437 721q160 0 274 -114t114 -274t-114 -274t-274 -114q-161 0 -275 113.5t-114 274.5q0 160 114 274t275 114zM437 29q125 0 214.5 89t89.5 215q0 125 -89.5 215t-214.5 90q-126 0 -215.5 -89.5t-89.5 -215.5t89.5 -215t215.5 -89zM488 378q33 -13 50 -36q28 -36 28 -81 q0 -54 -37.5 -91t-91.5 -37q-57 0 -95 40t-33 97h72q-5 -27 11.5 -46t44.5 -19q23 0 39.5 16t16.5 40q0 30 -20 45q-29 24 -68 5l-29 56v1l64 66h-117v73h230v-64z" glyph-name="uni2782" horiz-adv-x="873" unicode="➂"/><glyph d="M437 721q160 0 274 -114t114 -274t-114 -274t-274 -114q-161 0 -275 113.5t-114 274.5q0 160 114 274t275 114zM437 29q125 0 214.5 89t89.5 215q0 125 -89.5 215t-214.5 90q-126 0 -215.5 -89.5t-89.5 -215.5t89.5 -215t215.5 -89zM520 518v-228h46v-72h-46v-68h-74v68 l-170 1v71l170 228h74zM365 290h81v110z" glyph-name="uni2783" horiz-adv-x="873" unicode="➃"/><glyph d="M437 -55q-161 0 -275 113.5t-114 274.5q0 160 114 274t275 114q160 0 274 -114t114 -274t-114 -274t-274 -114zM437 29q125 0 214.5 89t89.5 215q0 125 -89.5 215t-214.5 90q-126 0 -215.5 -89.5t-89.5 -215.5t89.5 -215t215.5 -89zM301 277h73q-3 -27 13.5 -46.5 t44.5 -19.5q25 0 43 17t19 41q1 29 -17 47.5t-47 18.5q-17 0 -31.5 -8t-19.5 -19l-67 17l46 185h195v-73h-138l-12 -41q17 5 34 5q56 0 92.5 -37.5t36.5 -94.5q0 -53 -39.5 -91.5t-94.5 -38.5q-58 0 -96 40.5t-35 97.5z" glyph-name="uni2784" horiz-adv-x="873" unicode="➄"/><glyph d="M437 -55q-161 0 -275 113.5t-114 274.5q0 160 114 274t275 114q160 0 274 -114t114 -274t-114 -274t-274 -114zM437 29q125 0 214.5 89t89.5 215q0 125 -89.5 215t-214.5 90q-126 0 -215.5 -89.5t-89.5 -215.5t89.5 -215t215.5 -89zM308 428q16 38 51 62.5t77 25.5 q86 -1 127 -70l-54 -36q-25 39 -71 37q-27 -1 -49.5 -20.5t-28.5 -52.5q29 38 78 36q59 0 93 -41.5t31 -98.5q-4 -56 -41.5 -92.5t-96.5 -36.5q-48 1 -81 29.5t-45.5 71.5t-10 93t20.5 93zM365 280q-1 -32 16 -51t44 -19q29 0 48 20t17 53q-2 25 -20 41.5t-41 17.5 q-24 0 -43 -17t-21 -45z" glyph-name="uni2785" horiz-adv-x="873" unicode="➅"/><glyph d="M437 721q160 0 274 -114t114 -274t-114 -274t-274 -114q-161 0 -275 113.5t-114 274.5q0 160 114 274t275 114zM437 29q125 0 214.5 89t89.5 215q0 125 -89.5 215t-214.5 90q-126 0 -215.5 -89.5t-89.5 -215.5t89.5 -215t215.5 -89zM307 434v76h266v-76 q-134 -98 -134 -291h-77q0 178 113 291h-168z" glyph-name="uni2786" horiz-adv-x="873" unicode="➆"/><glyph d="M437 -55q-161 0 -275 113.5t-114 274.5q0 160 114 274t275 114q160 0 274 -114t114 -274t-114 -274t-274 -114zM437 29q125 0 214.5 89t89.5 215q0 125 -89.5 215t-214.5 90q-126 0 -215.5 -89.5t-89.5 -215.5t89.5 -215t215.5 -89zM432 144q-60 -1 -95 32.5t-36 78.5 q0 57 50 89q-37 28 -39 71q-2 42 32 74.5t89 33.5q54 -1 87 -32.5t33 -72.5q0 -45 -39 -74q49 -32 49 -88q0 -45 -35 -78.5t-96 -33.5zM432 377q25 0 39 12.5t13 28.5q0 15 -14 26t-38 11q-25 -1 -38 -12t-14 -27q0 -16 14 -27.5t38 -11.5zM432 212q29 0 45.5 15t15.5 34 t-17 32.5t-44 13.5t-44 -14t-16 -33q-1 -19 15.5 -33.5t44.5 -14.5z" glyph-name="uni2787" horiz-adv-x="873" unicode="➇"/><glyph d="M437 -55q-161 0 -275 113.5t-114 274.5q0 160 114 274t275 114q160 0 274 -114t114 -274t-114 -274t-274 -114zM437 29q125 0 214.5 89t89.5 215q0 125 -89.5 215t-214.5 90q-126 0 -215.5 -89.5t-89.5 -215.5t89.5 -215t215.5 -89zM303 383q-4 -63 34 -99.5t89 -36.5 q57 0 80 38q-5 -35 -26 -55t-49 -22q-19 -2 -38 7t-30 28l-58 -34q41 -71 122 -71q62 0 100.5 41t45 101.5t-7.5 129.5q-11 47 -44.5 75t-80.5 28q-55 2 -94.5 -35.5t-42.5 -94.5zM372 379q0 30 21 49.5t48 17.5q26 -2 41.5 -20.5t16.5 -44.5q0 -33 -20.5 -52.5t-49.5 -17.5 q-24 2 -40.5 20.5t-16.5 47.5z" glyph-name="uni2788" horiz-adv-x="873" unicode="➈"/><glyph d="M101 559q-29 0 -50 20.5t-21 50.5q0 29 21 50.5t50 21.5t50.5 -21.5t21.5 -50.5t-21.5 -50t-50.5 -21zM57 480h100v-480h-100v480z" glyph-name="i.locl" horiz-adv-x="214"/><glyph d="M677 356q0 -169 -85 -267.5t-226 -100.5h-3h-2q-141 2 -226 100.5t-85 267.5q0 168 85 267.5t226 101.5h2h3q141 -2 226 -101.5t85 -267.5zM363 92q90 2 147 71t57 193t-57 193t-147 70q-90 -1 -147 -70t-57 -193q0 -123 57 -192.5t147 -71.5z" glyph-name="zero.tnum" horiz-adv-x="727"/><glyph d="M247 103h118v-103h-221h-118v103h118v444q-21 -8 -44 -8h-65v102h61q48 0 48 56v23h103v-617z" glyph-name="one.tnum" horiz-adv-x="397"/><glyph d="M544 480q-3 -109 -100 -191q-20 -16 -118.5 -90.5t-124.5 -96.5l325 1v-101l-481 -2q0 61 18 102t73 81q38 29 97 73t97 72.5t53 43.5q58 52 59 112q-2 64 -38.5 102.5t-100.5 38.5t-101.5 -37t-37.5 -99h-102q0 104 66 169.5t173 67.5h2h2q103 -1 170 -68.5t69 -169.5 v-4v-4z" glyph-name="two.tnum" horiz-adv-x="594"/><glyph d="M350 456q83 -19 135.5 -81.5t52.5 -147.5q0 -101 -71.5 -170t-173.5 -69q-105 0 -175.5 68.5t-70.5 166.5h102q1 -56 41 -95t103 -39q60 0 101.5 39.5t41.5 98.5q0 58 -37.5 98t-95.5 44q-37 4 -75 -8l-34 84l164 163h-280v102h432v-95z" glyph-name="three.tnum" horiz-adv-x="588"/><glyph d="M588 239v-101l-88 1v-139h-101v139h-354v101l354 470h101v-471h88zM169 240h230v308z" glyph-name="four.tnum" horiz-adv-x="613"/><glyph d="M304 484q109 0 177 -72.5t68 -180.5q0 -102 -75 -173t-180 -71t-177 71.5t-72 174.5h102q0 -61 42 -102t105 -41t107.5 41t45.5 100q2 72 -42.5 117t-115.5 45q-40 0 -75.5 -18t-51.5 -45l-93 24l88 356h366v-102h-286l-42 -155q51 31 109 31z" glyph-name="five.tnum" horiz-adv-x="594"/><glyph d="M160 403q25 45 69.5 71.5t93.5 31.5t100 -10t90.5 -47.5t63 -88t20.5 -123.5q-6 -115 -82.5 -184t-177.5 -68q-136 2 -207 106t-68 266q0 151 64 246q81 121 225 121q73 1 135.5 -29.5t100.5 -88.5l-86 -53q-48 62 -126 69t-136 -46q-68 -56 -79 -173zM496 241 q2 45 -13.5 81.5t-42 56.5t-59 30.5t-66.5 3.5t-62.5 -24.5t-48.5 -52.5t-24 -82q-2 -76 40.5 -122t107.5 -51q65 -6 114.5 38t53.5 122z" glyph-name="six.tnum" horiz-adv-x="643"/><glyph d="M15 710h482v-105q-56 -44 -100.5 -99t-71.5 -104.5t-47 -107.5t-29 -98.5t-14 -87t-5.5 -64.5t-0.5 -40v-4h-104q0 289 153 502q40 56 89 103h-352v105z" glyph-name="seven.tnum" horiz-adv-x="512"/><glyph d="M54 188q-2 93 71 154q25 20 55 33q-32 17 -54 40q-51 55 -49 126q0 85 73 140q61 44 150 44q87 0 145 -39q77 -52 80 -143q2 -76 -51 -130q-24 -24 -53 -38q24 -10 42 -22q44 -31 65.5 -76t18.5 -94q-5 -83 -71 -139q-68 -57 -176 -57q-108 -1 -179 61q-64 56 -67 140z M168 530q-1 -36 23.5 -61.5t63.5 -31.5q53 -13 103 5q42 16 56 54q20 41 -7 79q-10 27 -39 42t-68 15q-59 0 -97 -31q-35 -29 -35 -71zM149 201q2 -41 31 -72q42 -46 120 -47q68 0 113 38q40 34 40 85q-2 55 -46 88q-41 33 -107 33q-70 0 -112 -37q-41 -36 -39 -88z" glyph-name="eight.tnum" horiz-adv-x="602"/><glyph d="M574 521q31 -98 20.5 -210t-60.5 -192q-52 -85 -143 -118t-181 -5.5t-143 107.5l86 53q59 -75 153 -69t143 85q32 44 42 116q-29 -47 -78.5 -71.5t-106.5 -23.5q-105 0 -184 75.5t-72 203.5q6 113 86.5 185t182.5 71q96 -1 161.5 -56.5t93.5 -150.5zM309 291 q65 -1 114 42.5t51 121.5q1 79 -44 124.5t-109 47.5q-63 2 -114.5 -41.5t-55.5 -118.5q-3 -81 44.5 -127.5t113.5 -48.5z" glyph-name="nine.tnum" horiz-adv-x="657"/><glyph d="M369 176q0 -85 -42.5 -136.5t-114.5 -52.5q-73 -1 -117 50.5t-44 138.5q0 85 42.5 137.5t114.5 52.5q73 1 117 -51t44 -139zM210 62q39 1 61.5 31.5t22.5 82.5q0 51 -21 81.5t-57 32.5h-6h-4q-37 -2 -59 -32.5t-22 -81.5q0 -52 23 -82.5t62 -31.5z" glyph-name="zero.dnom" horiz-adv-x="420"/><glyph d="M183 0h-73l-1 263q-7 -4 -17 -4h-50v72h44q20 0 23 20v16h73z" glyph-name="one.dnom" horiz-adv-x="263"/><glyph d="M311 257q2 -21 -2.5 -39.5t-10.5 -30.5t-23 -28.5t-27.5 -25t-38.5 -29.5t-42 -32h135v-72l-254 -1q-1 40 9.5 64t38.5 44q50 38 116 91q22 19 26 38q4 31 -14.5 49t-50.5 14q-24 -3 -36 -20t-8 -44h-73q-4 60 35.5 99t100.5 37q51 0 83 -31.5t35 -82.5h1z" glyph-name="two.dnom" horiz-adv-x="352"/><glyph d="M232 239q36 -14 58.5 -46t22.5 -71q0 -54 -38.5 -91.5t-93.5 -37.5q-58 0 -96.5 40.5t-33.5 97.5h73q-5 -27 12 -46t45 -19q24 0 41 16t17 40q0 35 -29.5 50.5t-60.5 -0.5l-29 56v1l66 66h-121v73h234v-64z" glyph-name="three.dnom" horiz-adv-x="363"/><glyph d="M346 135v-73h-47v-69h-75v69h-173v74l173 232h75v-232zM142 136h82v112z" glyph-name="four.dnom" horiz-adv-x="396"/><glyph d="M51 129h73q-3 -28 14.5 -47.5t45.5 -19.5q26 0 44.5 17t18.5 42q1 30 -17 49t-48 19q-17 0 -32.5 -8.5t-20.5 -19.5l-69 17l47 190h202v-74h-143l-11 -42q15 4 34 4q58 0 95 -38t37 -97q0 -55 -40 -94t-97 -39q-59 0 -98 41t-35 100z" glyph-name="five.dnom" horiz-adv-x="360"/><glyph d="M72 281q18 39 53.5 64t78.5 26q87 -1 129 -72l-55 -37q-27 40 -72 39q-28 -1 -51 -21t-29 -54q28 39 80 37q61 0 95 -42t31 -101q-4 -57 -42 -94.5t-99 -37.5q-49 1 -82.5 30.5t-46.5 73t-10.5 94.5t20.5 95zM130 128q-2 -33 15 -52t44 -19q30 0 49 20.5t18 53.5 q-2 26 -20 42t-42 17t-43.5 -16.5t-20.5 -45.5z" glyph-name="six.dnom" horiz-adv-x="384"/><glyph d="M51 368h267v-77q-135 -98 -135 -291h-77q0 179 112 291h-167v77z" glyph-name="seven.dnom" horiz-adv-x="368"/><glyph d="M183 -11q-60 0 -96 33.5t-36 77.5q0 59 49 90q-40 31 -38 77q1 41 34.5 72t86.5 31q52 0 85 -30t35 -71q3 -48 -38 -79q22 -14 36 -38t14 -50q0 -45 -35.5 -79t-96.5 -34zM183 223q24 0 38 11.5t14 27.5q1 16 -13 27.5t-39 11.5q-26 -1 -39.5 -12t-12.5 -27 q-1 -16 13 -27.5t39 -11.5zM183 58q28 0 44 13.5t17 33.5q1 19 -15 33.5t-46 14.5t-46 -14.5t-15 -34.5q0 -19 16 -32.5t45 -13.5z" glyph-name="eight.dnom" horiz-adv-x="367"/><glyph d="M51 238q-3 -64 36 -101.5t91 -38.5q24 0 47 10.5t34 28.5q-4 -37 -25.5 -57.5t-49.5 -22.5q-44 -4 -71 37l-58 -35q44 -72 128 -72q62 1 100.5 43t44.5 103.5t-10 131.5q-11 47 -46.5 76t-82.5 30q-56 1 -95.5 -37t-42.5 -96zM122 234q-1 31 20 50.5t49 17.5 q26 -2 42 -20.5t18 -45.5q1 -34 -19.5 -54t-50.5 -18q-25 2 -42 20.5t-17 49.5z" glyph-name="nine.dnom" horiz-adv-x="382"/><glyph d="M372 532q0 -85 -43 -137.5t-114 -53.5q-75 -2 -119.5 50.5t-44.5 140.5q0 86 43.5 138.5t115.5 52.5q73 1 117.5 -51.5t44.5 -139.5zM211 416q39 1 62 32t23 84q0 51 -21.5 82t-58.5 33h-5q-4 0 -7 -1q-36 -2 -57 -32.5t-21 -81.5q0 -52 23 -83.5t62 -32.5z" glyph-name="zero.numr" horiz-adv-x="422"/><glyph d="M177 343h-73v255q-3 -1 -9 -1h-59v73h43q21 0 25 20v20h73v-367z" glyph-name="one.numr" horiz-adv-x="258"/><glyph d="M290 599q1 -21 -3.5 -39t-10 -30t-23 -29t-27.5 -25.5t-38.5 -29.5t-41.5 -31h135v-72l-254 -1q-1 40 9.5 64t38.5 44q71 55 117 91q22 19 25 38q4 31 -14.5 49t-50.5 14q-50 -6 -44 -64h-72q-4 60 34.5 98.5t100.5 37.5q52 0 84 -31.5t35 -83.5z" glyph-name="two.numr" horiz-adv-x="310"/><glyph d="M280 545q28 -35 28 -81q0 -54 -37.5 -90.5t-91.5 -36.5q-57 0 -95 40t-33 96h72q-5 -27 11.5 -46t44.5 -19q24 0 40.5 16t16.5 40q0 28 -20 45q-29 24 -68 5l-30 57l65 66h-118v73h230v-63l-65 -66q33 -13 50 -36z" glyph-name="three.numr" horiz-adv-x="359"/><glyph d="M340 481v-71h-45v-68h-74v68h-170v72l170 228h74v-229h45zM140 482h81v109z" glyph-name="four.numr" horiz-adv-x="385"/><glyph d="M51 477h72q-3 -27 14 -46.5t45 -19.5q25 0 43 17t18 41q1 29 -17 47.5t-47 18.5q-37 0 -51 -27l-67 17l46 185h196v-73h-139l-11 -41q17 5 33 5q56 0 92.5 -37.5t36.5 -94.5q0 -53 -39 -91.5t-94 -38.5q-58 0 -96 40.5t-35 97.5z" glyph-name="five.numr" horiz-adv-x="358"/><glyph d="M72 626q16 38 51 62.5t77 25.5q86 -1 127 -70l-54 -36q-25 39 -71 37q-27 -1 -49.5 -20.5t-28.5 -52.5q29 38 79 36q59 0 92.5 -41.5t30.5 -98.5q-4 -56 -41.5 -92.5t-96.5 -36.5q-48 1 -81 29.5t-45.5 71.5t-10 93t20.5 93zM129 478q-1 -32 16 -51t44 -19q29 0 48 20 t17 53q-2 26 -19.5 42t-41.5 17q-24 0 -43 -17t-21 -45z" glyph-name="six.numr" horiz-adv-x="378"/><glyph d="M51 710h266v-76q-135 -99 -135 -291h-76q0 178 112 291h-167v76z" glyph-name="seven.numr" horiz-adv-x="368"/><glyph d="M182 336q-60 0 -95.5 33.5t-35.5 78.5q0 56 49 88q-36 29 -38 71q-2 43 32 75.5t89 32.5q53 0 86 -31.5t34 -72.5q-2 -45 -39 -75q22 -14 35.5 -37.5t13.5 -49.5q0 -45 -35 -78.5t-96 -34.5zM182 569q25 1 39 13t13 28q-1 15 -14.5 26t-37.5 11q-25 0 -38.5 -11.5 t-13.5 -27.5t13.5 -27.5t38.5 -11.5zM182 404q29 0 45.5 15t15.5 35q-1 19 -17 32t-44 13q-29 0 -44.5 -13.5t-15.5 -32.5q-1 -20 15 -34.5t45 -14.5z" glyph-name="eight.numr" horiz-adv-x="365"/><glyph d="M51 583q-3 -63 35.5 -99.5t89.5 -36.5q23 0 45.5 10t33.5 28q-4 -35 -25 -55t-49 -22q-19 -2 -38 7t-30 28l-58 -34q41 -71 123 -71q62 0 100 41t43.5 101.5t-9.5 129.5q-11 47 -45 75t-80 28q-55 2 -94.5 -35.5t-41.5 -94.5zM120 579q0 31 20.5 50t47.5 17 q26 -2 41.5 -20.5t17.5 -44.5q1 -33 -19.5 -52.5t-49.5 -17.5q-24 2 -40.5 20t-17.5 48z" glyph-name="nine.numr" horiz-adv-x="376"/><glyph d="M267 723q93 0 159 -66t66 -159q0 -94 -66 -160t-159 -66q-95 0 -161 66t-66 160q0 93 66.5 159t160.5 66zM267 318q76 0 128.5 52t52.5 128t-52.5 128t-128.5 52q-77 0 -129 -52t-52 -128q0 -78 51 -129t130 -51zM344 533q-2 -38 -33 -52l37 -84h-50l-33 77h-22v-77h-44 v202h44h24q74 3 77 -56v-4v-6zM243 557v-44h35q18 1 19 20h-1q1 1 1 2v4q-1 18 -30 18h-24z" glyph-name="registered.aalt" horiz-adv-x="532"/><glyph d="M107 779h-93l86 167h98z" glyph-name="glyph437" horiz-adv-x="145"/></font>
</defs>
</svg>
